<svg id="Capa_1" enable-background="new 0 0 497 497" height="512" viewBox="0 0 497 497" width="512" xmlns="http://www.w3.org/2000/svg"><g><path d="m10.385 227.791v-83.437h290.036l74.776 84.777-143.084 39.733z" fill="#fff"/><path d="m375.197 229.131-74.776-84.777h-30l73.452 83.276z" fill="#e7e7e7"/><path d="m94.689 235.13c-4.142 0-7.5-3.358-7.5-7.5v-96.839c0-4.142 3.358-7.5 7.5-7.5s7.5 3.358 7.5 7.5v96.839c0 4.142-3.358 7.5-7.5 7.5z" fill="#e3e0e4"/><path d="m195.845 226.985v-96.194c0-4.142-3.358-7.5-7.5-7.5s-7.5 3.358-7.5 7.5v96.194z" fill="#e3e0e4"/><path d="m486.615 316.484h-476.23v-88.854h427.838s.79 30.908 8.143 37.356c8.734 7.659 40.248 9.533 40.248 9.533v41.965z" fill="#62a4fb"/><path d="m456.615 271.768v44.716h30v-41.965z" fill="#5392f9"/><path d="m486.615 274.519v-5.105c0-23.077-18.708-41.784-41.784-41.784h-6.607v29.939c0 9.361 7.589 16.95 16.95 16.95z" fill="#f8e076"/><path d="m444.83 227.63h-2.079c8.509 9.912 13.863 24.281 13.863 40.274v6.615h30v-5.105c.001-23.077-18.707-41.784-41.784-41.784z" fill="#f7d958"/><path d="m180.845 227.63v94.666c0 4.142 3.358 7.5 7.5 7.5s7.5-3.358 7.5-7.5v-94.666z" fill="#4981f8"/><path d="m153.432 258.575h-12.32c-4.142 0-7.5-3.358-7.5-7.5s3.358-7.5 7.5-7.5h12.32c4.142 0 7.5 3.358 7.5 7.5s-3.358 7.5-7.5 7.5z" fill="#5392f9"/><path d="m234.505 258.575h-12.32c-4.142 0-7.5-3.358-7.5-7.5s3.358-7.5 7.5-7.5h12.32c4.142 0 7.5 3.358 7.5 7.5s-3.358 7.5-7.5 7.5z" fill="#5392f9"/><path d="m492.166 343.856h-487.332c-2.67 0-4.834-2.164-4.834-4.834v-22.539c0-2.669 2.164-4.834 4.834-4.834h487.333c2.669 0 4.834 2.164 4.834 4.834v22.539c-.001 2.67-2.165 4.834-4.835 4.834z" fill="#c8c3ca"/><ellipse cx="390.498" cy="334.19" fill="#8c818f" rx="49.596" ry="49.3"/><ellipse cx="390.498" cy="334.19" fill="#c8c3ca" rx="17.401" ry="17.297"/><ellipse cx="92.644" cy="334.19" fill="#8c818f" rx="49.596" ry="49.3"/><path d="m390.498 284.889c-5.229 0-10.267.81-15 2.301 20.058 6.32 34.596 24.969 34.596 46.999 0 22.029-14.538 40.679-34.596 46.999 4.733 1.491 9.771 2.301 15 2.301 27.391 0 49.596-22.072 49.596-49.3.001-27.227-22.204-49.3-49.596-49.3z" fill="#766d78"/><path d="m92.644 284.889c-5.229 0-10.267.81-15 2.301 20.058 6.32 34.596 24.969 34.596 46.999 0 22.029-14.538 40.679-34.596 46.999 4.733 1.491 9.771 2.301 15 2.301 27.391 0 49.596-22.072 49.596-49.3 0-27.227-22.205-49.3-49.596-49.3z" fill="#766d78"/><ellipse cx="92.644" cy="334.19" fill="#c8c3ca" rx="17.401" ry="17.297"/><path d="m10.385 150.791h295.812l-27.324-30.834c-3.633-4.1-8.848-6.447-14.326-6.447h-235.02c-10.572 0-19.142 8.57-19.142 19.142z" fill="#62a4fb"/><path d="m278.874 119.957c-3.633-4.1-8.848-6.447-14.326-6.447h-30c5.478 0 10.693 2.347 14.326 6.447l27.324 30.834h30z" fill="#5392f9"/></g></svg>