<svg id="Capa_1" enable-background="new 0 0 510 510" height="512" viewBox="0 0 510 510" width="512" xmlns="http://www.w3.org/2000/svg"><g><path d="m510 291.081c0-35.266-23.683-66.662-57.591-76.351l-51.943-14.841-40.897-81.795c-12.52-25.039-37.689-40.594-65.684-40.594h-153.389c-30.439 0-58.072 19.149-68.76 47.65l-28.713 76.567-16.05 8.024c-16.637 8.321-26.973 25.045-26.973 43.647v124.112h71.635c6.887 31.412 34.915 55 68.365 55s61.478-23.588 68.365-55h93.271c6.887 31.412 34.915 55 68.365 55s61.478-23.588 68.365-55h71.634zm-177.265-159.57 32.994 65.989h-135.729v-90h63.885c16.558 0 31.445 9.2 38.85 24.011zm-232.909 4.173c6.321-16.857 22.666-28.184 40.67-28.184h59.504v90h-123.355zm40.174 266.816c-22.056 0-40-17.944-40-40s17.944-40 40-40 40 17.944 40 40-17.944 40-40 40zm230 0c-22.056 0-40-17.944-40-40s17.944-40 40-40 40 17.944 40 40-17.944 40-40 40zm68.365-55c-6.887-31.412-34.915-55-68.365-55s-61.478 23.588-68.365 55h-93.271c-6.887-31.412-34.915-55-68.365-55s-61.478 23.588-68.365 55h-41.634v-94.112c0-7.166 3.981-13.608 10.391-16.813l18.15-9.074h326.459v-.828l59.167 16.904c14.845 4.242 26.531 15.175 32.159 28.924h-26.326v30h30v45h-41.635z"/></g></svg>