<svg id="Capa_1" enable-background="new 0 0 512 512" height="512" viewBox="0 0 512 512" width="512" xmlns="http://www.w3.org/2000/svg"><g><g><path d="m70.361 58.585 8.312 23.371c.356 1.001 1.06 1.793 1.949 2.194l20.764 9.355c2.933 1.322 2.933 5.996 0 7.317l-20.764 9.355c-.889.4-1.594 1.193-1.949 2.194l-8.312 23.371c-1.174 3.302-5.327 3.302-6.501 0l-8.312-23.371c-.356-1.001-1.06-1.794-1.949-2.194l-20.764-9.355c-2.934-1.322-2.934-5.996 0-7.317l20.764-9.355c.889-.401 1.593-1.194 1.949-2.194l8.312-23.371c1.174-3.302 5.327-3.302 6.501 0z"/><path d="m143.347 1.837 6.165 17.336c.264.742.787 1.33 1.446 1.628l15.403 6.939c2.176.981 2.176 4.447 0 5.428l-15.403 6.939c-.66.297-1.182.885-1.446 1.628l-6.165 17.336c-.871 2.449-3.951 2.449-4.822 0l-6.165-17.336c-.264-.742-.786-1.33-1.446-1.628l-15.403-6.939c-2.176-.98-2.176-4.447 0-5.428l15.403-6.939c.66-.297 1.182-.885 1.446-1.628l6.165-17.336c.87-2.449 3.951-2.449 4.822 0z"/><ellipse cx="433.005" cy="24.817" rx="18.149" ry="18.149" transform="matrix(.23 -.973 .973 .23 309.367 440.537)"/><ellipse cx="31.925" cy="38.6" rx="7.829" ry="7.829" transform="matrix(.16 -.987 .987 .16 -11.291 63.93)"/><path d="m475.184 99.652 6.165 17.336c.264.742.787 1.33 1.446 1.628l15.402 6.939c2.176.98 2.176 4.448 0 5.428l-15.402 6.939c-.659.297-1.182.885-1.446 1.628l-6.165 17.336c-.871 2.449-3.951 2.449-4.822 0l-6.165-17.336c-.264-.742-.786-1.33-1.446-1.628l-15.403-6.939c-2.176-.98-2.176-4.447 0-5.428l15.403-6.939c.659-.297 1.182-.885 1.446-1.628l6.165-17.336c.87-2.449 3.951-2.449 4.822 0z"/></g><g><path d="m433.863 213.015h-37.434l-3.176-16.217c-3.637-18.572-20.011-32.051-38.936-32.051h-15.119v-19.417h19.915c17.426 0 31.603-14.178 31.603-31.604v-49.877c0-17.426-14.178-31.604-31.603-31.604h-139.657c-17.426 0-31.604 14.177-31.604 31.604v49.877c0 17.427 14.178 31.604 31.604 31.604h19.914v19.417h-17.345c-18.965 0-35.346 13.514-38.952 32.132l-3.126 16.136h-38.404c-4.234-4.722-9.664-8.344-15.807-10.4v-2.853c0-19.166-15.592-34.758-34.757-34.758h-18.803c-19.166 0-34.757 15.592-34.757 34.758v2.852c-14.654 4.904-25.248 18.751-25.248 35.034v237.412c0 20.369 16.571 36.94 36.94 36.94h63.856 1.078 319.818c25.918 0 47.004-21.086 47.004-47.003v-204.978c0-25.918-21.086-47.004-47.004-47.004zm-225.774-99.289v-49.877c0-6.268 5.1-11.367 11.367-11.367h139.656c6.268 0 11.366 5.099 11.366 11.367v49.877c0 6.268-5.099 11.367-11.366 11.367h-139.656c-6.267 0-11.367-5.099-11.367-11.367zm51.518 31.604h59.354v19.417h-59.354zm-71.313 87.922c4.847 0 9.013-3.436 9.934-8.194l4.712-24.33c1.767-9.122 9.793-15.743 19.085-15.743h132.293c9.271 0 17.295 6.604 19.077 15.704l4.777 24.39c.93 4.748 5.091 8.174 9.93 8.174h45.763c14.76 0 26.767 12.008 26.767 26.767v27.056h-83.874c-20.768-25.293-52.267-41.456-87.472-41.456s-66.704 16.163-87.472 41.456h-50.826v-49.426c0-1.489-.099-2.954-.271-4.397h37.577zm100.99 32.603c51.233 0 92.914 41.681 92.914 92.914s-41.681 92.914-92.914 92.914-92.914-41.681-92.914-92.914 41.681-92.914 92.914-92.914zm-217.108-80.613h18.804c8.007 0 14.521 6.514 14.521 14.521v.945h-47.845v-.945c0-8.007 6.513-14.521 14.52-14.521zm-39.769 289.818v-237.412c0-9.211 7.493-16.704 16.703-16.704h64.934c9.21 0 16.704 7.493 16.704 16.704v237.412c0 9.21-7.494 16.704-16.704 16.704h-64.934c-9.21-.001-16.703-7.494-16.703-16.704zm401.456 16.703h-286.886c2.557-5.021 4.009-10.694 4.009-16.704v-175.842h42.129c-10.758 17.309-16.982 37.716-16.982 59.552 0 62.391 50.759 113.151 113.151 113.151s113.151-50.759 113.151-113.151c0-21.836-6.224-42.244-16.982-59.552h75.177v165.78c0 14.759-12.008 26.766-26.767 26.766z"/><path d="m289.284 426.32c37.247 0 67.551-30.303 67.551-67.551s-30.304-67.551-67.551-67.551-67.551 30.303-67.551 67.551 30.304 67.551 67.551 67.551zm0-122.96c30.553 0 55.409 24.856 55.409 55.409s-24.856 55.409-55.409 55.409-55.409-24.856-55.409-55.409 24.856-55.409 55.409-55.409z"/><path d="m360.738 76.359c0-7.811-6.356-14.166-14.167-14.166h-114.574c-7.811 0-14.167 6.355-14.167 14.166v24.856c0 7.812 6.356 14.167 14.167 14.167h114.574c7.811 0 14.167-6.355 14.167-14.167zm-12.142 24.856c0 1.117-.908 2.025-2.025 2.025h-114.574c-1.117 0-2.025-.908-2.025-2.025v-24.856c0-1.116.908-2.024 2.025-2.024h114.574c1.117 0 2.025.908 2.025 2.024z"/><path d="m57.447 341.744c-.088 0-.175-.001-.264-.003-5.586-.143-9.999-4.787-9.856-10.373.343-13.407.343-25.357 0-38.747-.142-5.586 4.27-10.231 9.856-10.374 5.549-.149 10.231 4.269 10.374 9.856.352 13.747.352 26.016 0 39.781-.141 5.499-4.642 9.86-10.11 9.86z"/><path d="m57.442 268.062c-5.588 0-10.118-4.53-10.118-10.118v-3.786c0-5.588 4.53-10.118 10.118-10.118s10.118 4.53 10.118 10.118v3.786c.001 5.588-4.53 10.118-10.118 10.118z"/><ellipse cx="302.571" cy="372.021" rx="18.902" ry="18.902" transform="matrix(.707 -.707 .707 .707 -174.438 322.913)"/></g></g></svg>