<svg id="Capa_1" enable-background="new 0 0 512 512" height="512" viewBox="0 0 512 512" width="512" xmlns="http://www.w3.org/2000/svg"><g><path d="m512 256c0 11.989-.824 23.786-2.419 35.337-37.14 13.257-63.721 48.743-63.721 90.438 0 13.22 2.672 25.816 7.506 37.277-46.955 56.773-117.936 92.948-197.366 92.948-135.525 0-246.453-105.311-255.415-238.564-.246-3.659 1.582-7.15 4.729-9.032 74.746-44.702 124.793-126.44 124.793-219.866 0-1.838-.019-3.672-.058-5.501-.077-3.654 1.887-7.049 5.108-8.777 35.993-19.308 77.139-30.26 120.843-30.26 141.385 0 256 114.615 256 256z" fill="#07a9f0"/><path d="m460.61 256c0 113.003-91.607 204.61-204.61 204.61s-204.61-91.607-204.61-204.61 91.607-204.61 204.61-204.61 204.61 91.607 204.61 204.61z" fill="#40c1fa"/><path d="m355.637 99.657-64.705 241.481c-1.429 5.335-6.913 8.5-12.247 7.071l-278.082-74.511c-.4-5.847-.603-11.749-.603-17.698 0-97.698 54.728-182.613 135.198-225.762l213.368 57.172c5.335 1.429 8.501 6.913 7.071 12.247z" fill="#fcf2b6"/><path d="m53.873 287.972-53.27-14.274c-.4-5.847-.603-11.749-.603-17.698 0-97.698 54.728-182.613 135.198-225.762l89.146 23.887c-89.181 22.067-172.673 97.971-172.673 193.973 0 13.812 2.202 39.874 2.202 39.874z" fill="#ffde91"/><path d="m304.022 125.375c-10.168 37.947-39.319 67.983-77.039 78.965-18.107 5.272-38.143 8.758-57.317 7.235-75.868-6.027-122.232-105.174-110.52-119.245 8.942-10.743 18.747-20.743 29.309-29.893l212.032 56.814c2.667.715 4.25 3.457 3.535 6.124z" fill="#2476ed"/><path d="m179.776 142.812-16.807-4.503c-4.001-1.072-6.375-5.185-5.303-9.186l.311-1.159c1.072-4.001 5.185-6.375 9.186-5.303l16.807 4.503c4.001 1.072 6.375 5.185 5.303 9.186l-.311 1.159c-1.073 4-5.185 6.375-9.186 5.303z" fill="#5596fb"/><path d="m177.84 136.854c-3.246 7.243-.141 15.754 7.006 19.207 3.155 1.524 3.312 5.959.274 7.703-6.883 3.952-9.374 12.663-5.622 19.657 1.656 3.087-.823 6.768-4.306 6.393-7.892-.848-15.027 4.734-16.102 12.598-.475 3.471-4.643 4.992-7.241 2.641-5.886-5.325-14.94-5.003-20.432.727-2.424 2.529-6.691 1.309-7.411-2.12-1.632-7.768-9.146-12.829-16.957-11.421-3.448.621-6.182-2.874-4.75-6.071 3.246-7.243.141-15.754-7.006-19.207-3.155-1.524-3.312-5.959-.274-7.703 6.883-3.952 9.374-12.663 5.622-19.657-1.656-3.087.823-6.768 4.306-6.393 7.892.848 15.027-4.734 16.102-12.598.475-3.471 4.643-4.992 7.241-2.641 5.886 5.325 14.94 5.003 20.432-.727 2.424-2.529 6.691-1.309 7.411 2.12 1.632 7.768 9.146 12.829 16.957 11.421 3.448-.621 6.182 2.874 4.75 6.071z" fill="#ffe89c"/><path d="m165.065 168.21c-3.699 13.805-17.889 21.997-31.694 18.298s-21.997-17.889-18.298-31.694 17.889-21.997 31.694-18.298 21.997 17.889 18.298 31.694z" fill="#ffc14f"/><path d="m155.067 165.531c-2.219 8.283-10.733 13.198-19.016 10.979s-13.198-10.733-10.979-19.016 10.733-13.198 19.016-10.979 13.198 10.733 10.979 19.016z" fill="#ffa90b"/><path d="m95.68 239.058c-26.722 3.041-53.776.983-79.754-5.977l-13.713-3.674c-.285-.077-.558-.174-.818-.292 4.256-40.779 18.086-78.711 39.201-111.509 8.201-12.738 26.838-12.823 35.153-.159 7.847 11.952 19.057 27.3 38.072 46.972 16.172 16.73 31.092 29.452 44.593 39.801 26.538 20.342-22.59 30.27-62.734 34.838z" fill="#489160"/><path d="m24.458 234.125c-11.653-1.866-22.245-4.719-22.245-4.719-.285-.077-.558-.174-.818-.292 5.399-51.734 26.207-98.885 57.751-136.784 5.651 6.755 10.507 16.268 19.595 29.587-15.285 35.505-22.675 74.766-20.387 115.183.068 1.193-18.085-.443-33.896-2.975z" fill="#3d7a51"/><path d="m4.897 230.125c42.77 9.734 73.269 4.452 94.118-3.04 42.188-15.161 96.232-57.83 113.828-71.722 14.272-11.268 35.007-28.649 66.553-33.278 8.701-1.277 16.713-1.362 23.687-.878.914 1.27 1.272 2.925.835 4.555l-44.724 166.912c-.772 2.881-3.733 4.59-6.614 3.818z" fill="#82cd64"/><path d="m303.919 125.761-.443 1.652c-30.262 6.191-49.789 23.852-63.341 35.414-17.055 14.551-69.437 59.245-111.018 75.999-13.351 5.379-30.807 9.98-53.221 10.323l-70.999-19.024c42.77 9.734 73.269 4.452 94.118-3.041 42.188-15.161 96.232-57.83 113.828-71.722 14.272-11.268 35.007-28.649 66.553-33.278 8.701-1.277 16.713-1.362 23.687-.878.915 1.271 1.272 2.926.836 4.555zm-51.338 170.731c1.49.399 3.002.134 4.221-.613l-43.208-9.833z" fill="#6dc54a"/><path d="m295.028 158.941c-20.082 15.266-32.125 33.919-41.224 47.289-9.386 13.791-31.203 45.849-56.576 75.429l-55.68-14.919c36.996-26.612 74.599-66.763 88.458-81.561 13.591-14.512 33.171-36.687 66.521-46.841 1.465-.446 2.916-.856 4.352-1.233z" fill="#54a770"/><path d="m112.8 103.204-27.239-7.299c-4.001-1.072-6.375-5.185-5.303-9.186l.311-1.159c1.072-4.001 5.185-6.375 9.186-5.303l27.239 7.299c4.001 1.072 6.375 5.185 5.303 9.186l-.311 1.159c-1.073 4.001-5.185 6.375-9.186 5.303zm-19.124 14.363.311-1.159c1.072-4.001-1.302-8.114-5.303-9.186l-18.823-5.044c-4.001-1.072-8.114 1.302-9.186 5.303l-.311 1.159c-1.072 4.001 1.302 8.114 5.303 9.186l18.823 5.044c4.001 1.072 8.114-1.302 9.186-5.303zm144.002 5.042.311-1.159c1.072-4.001-1.302-8.114-5.303-9.186l-16.807-4.503c-4.001-1.072-8.114 1.302-9.186 5.303l-.311 1.159c-1.072 4.001 1.302 8.114 5.303 9.186l16.807 4.503c4.001 1.073 8.113-1.302 9.186-5.303z" fill="#5596fb"/><path d="m242.095 281.974-38.637 10.353c-8.002 2.144-16.227-2.605-18.371-10.607l-10.353-38.637c-2.144-8.002 2.605-16.227 10.607-18.371l38.637-10.353c8.002-2.144 16.227 2.605 18.371 10.607l10.353 38.637c2.143 8.001-2.605 16.226-10.607 18.371zm181.885-74.618-7.765-28.978c-2.144-8.002-10.369-12.751-18.371-10.607l-110.662 29.652c-8.002 2.144-12.751 10.369-10.607 18.371l7.765 28.978c2.144 8.002 10.369 12.751 18.371 10.607l110.662-29.652c8.002-2.144 12.751-10.369 10.607-18.371z" fill="#0a4499"/><path d="m392.954 438.253-162.537 43.552c-21.339 5.718-43.272-6.946-48.99-28.284l-13.459-50.229 7.38-10.838-12.952-48.336-12.028-6.508-10.353-38.638c-5.718-21.339 6.946-43.272 28.284-48.99l162.537-43.552c21.339-5.718 43.272 6.946 48.99 28.284l41.411 154.548c5.719 21.34-6.944 43.274-28.283 48.991z" fill="#d63030"/><path d="m450.08 422.946-182.958 49.024c-21.339 5.718-43.272-6.945-48.99-28.284l-41.411-154.548c-5.718-21.339 6.946-43.272 28.284-48.99l233.754-62.634c21.339-5.718 43.272 6.945 48.99 28.284l10.353 38.638s9.37 60.441 7.573 68.369c-9.384 41.425-28.815 79.037-55.595 110.141z" fill="#f44545"/><path d="m425.274 212.185c-1.429-5.335 1.736-10.818 7.071-12.247l19.319-5.176c5.335-1.429 10.818 1.736 12.247 7.071 1.429 5.335-1.736 10.818-7.071 12.247l-19.319 5.176c-5.335 1.43-10.818-1.736-12.247-7.071z" fill="#fcf2b6"/><path d="m505.675 312.804-337.707 90.488-17.6-65.683 347.733-93.175 11.839 44.185c-1.04 8.189-2.469 16.257-4.265 24.185z" fill="#ffc14f"/><path d="m150.369 337.609 17.6 65.683 36.705-9.835-17.6-65.683z" fill="#ffa90b"/><path d="m467.886 293.942c12.865 48.012-15.628 97.362-63.64 110.227s-97.362-15.628-110.227-63.64 15.628-97.362 63.64-110.227c48.012-12.864 97.362 15.628 110.227 63.64z" fill="#b4e7fd"/><path d="m448.567 299.119c10.006 37.343-12.155 75.726-49.497 85.732-37.343 10.006-75.726-12.155-85.732-49.497s12.155-75.726 49.497-85.732 75.727 12.154 85.732 49.497z" fill="#0a66ea"/><path d="m449.344 332.227c-5.44 24.718-24.138 45.621-50.274 52.624-37.343 10.006-75.726-12.155-85.732-49.497-7.003-26.136 1.751-52.781 20.437-69.85-2.333 10.6-2.227 21.901.776 33.108 10.006 37.343 48.39 59.503 85.732 49.497 11.207-3.004 21.047-8.563 29.061-15.882z" fill="#0956c6"/><path d="m424.392 312.988c-6.248 6.248-21.339 1.289-33.705-11.078-12.367-12.367-17.326-27.457-11.078-33.705s21.339-1.289 33.705 11.078c12.366 12.366 17.326 27.456 11.078 33.705z" fill="#5596fb"/><path d="m420.303 117.5v35c0 4.142-3.358 7.5-7.5 7.5s-7.5-3.358-7.5-7.5v-35c0-4.142 3.358-7.5 7.5-7.5s7.5 3.358 7.5 7.5zm23.107 47.5 14.393-14.393c2.929-2.929 2.929-7.678 0-10.607-2.929-2.929-7.678-2.929-10.607 0l-14.393 14.393c-2.929 2.929-2.929 7.678 0 10.607 2.929 2.929 7.678 2.929 10.607 0zm-57.803-17.803-14.393-14.393c-2.929-2.929-7.678-2.929-10.607 0-2.929 2.929-2.929 7.678 0 10.607l14.393 14.392c2.929 2.929 7.678 2.929 10.607 0 2.929-2.929 2.929-7.677 0-10.606z" fill="#fff5f5"/></g></svg>