<svg id="Capa_1" enable-background="new 0 0 512 512" height="512" viewBox="0 0 512 512" width="512" xmlns="http://www.w3.org/2000/svg"><g><g><path clip-rule="evenodd" d="m312.407 69.723 30.212-36.367c2.53-3.041.813-7.827-2.621-9.784l-30.121-17.402c-3.404-1.957-8.434-1.054-9.789 2.649l-16.416 44.315c-1.386 3.703-.783 7.827 2.621 9.784l16.326 9.453c3.433 1.958 7.288.392 9.788-2.648z" fill="#80d261" fill-rule="evenodd"/></g><g><path clip-rule="evenodd" d="m481.148 79.236-7.742-21.736c-.934-2.649-1.295-4.907-.211-7.285l10.091-21.947c2.139-4.275 1.657-5.268-3.163-5.178l-24.669.482c-2.801.03-3.163-.632-5-2.408l-16.928-16.409c-3.434-3.312-4.88-2.92-6.205 1.656l-6.446 22.669c-.723 2.469-.693 3.221-3.133 4.576l-21.627 11.922c-4.187 2.318-4.127 3.432-.121 6.081l19.73 13.939c2.108 1.505 2.922 3.673 3.434 6.443l4.187 22.669c.723 4.757 1.837 5.058 5.663 2.168l18.103-13.939c1.868-1.445 5.211-2.348 7.56-2.017l22.621 3.011c4.789.601 5.573-.212 3.856-4.697z" fill="#fece85" fill-rule="evenodd"/></g><g><path clip-rule="evenodd" d="m209.483 218.141c47.682-61.535 35.332-122.227 26.447-158.414-9.94-40.461-66.207-30.858-54.701 11.952 11.115 41.365 15.121 72.825 3.856 131.018z" fill="#fe76a8" fill-rule="evenodd"/></g><g><path clip-rule="evenodd" d="m267.707 270.344 127.263-105.67c4.127-4.124 4.127-10.868 0-14.992l-33.134-33.086c-4.127-4.124-10.874-4.124-15 0l-105.726 127.165z" fill="#fece85" fill-rule="evenodd"/></g><g><path clip-rule="evenodd" d="m437.14 339.044c42.2 13.638 54.64-42.027 14.699-54.009-35.423-10.627-94.762-25.86-158.107 17.341l15.994 25.71c56.599-7.617 87.413-1.987 127.414 10.958z" fill="#fe76a8" fill-rule="evenodd"/></g><g><path clip-rule="evenodd" d="m209.483 218.141c47.682-61.535 35.332-122.227 26.447-158.414-5.603-22.88-26.085-29.774-40.694-23.663 7.289 3.944 13.464 11.259 16.175 22.308 8.404 34.26 19.94 90.527-19.428 148.69z" fill="#fe5694" fill-rule="evenodd"/></g><g><path clip-rule="evenodd" d="m267.707 270.344 127.263-105.67c4.127-4.124 4.127-10.868 0-14.992l-5.904-5.901-135.425 112.474z" fill="#fdb440" fill-rule="evenodd"/></g><g><path clip-rule="evenodd" d="m437.14 339.044c41.056 13.276 53.947-39.047 17.862-52.925-.422 14.992-12.711 28.841-35.784 24.566-38.917-7.225-68.948-9.062-118.377 3.131l8.886 14.27c56.598-7.617 87.412-1.987 127.413 10.958z" fill="#fe5694" fill-rule="evenodd"/></g><g><path clip-rule="evenodd" d="m68.575 210.645-5.753-61.716c-.482-5.118-6.506-7.978-11.506-6.623l-44.038 11.802c-5 1.325-8.826 6.804-6.657 11.5l25.904 56.297c2.169 4.696 6.506 7.978 11.506 6.653l23.886-6.412c5.001-1.325 7.14-6.353 6.658-11.501z" fill="#80d261" fill-rule="evenodd"/></g><g><path clip-rule="evenodd" d="m111.769 71.92 21.416-15.143c4.337-2.89 4.398-4.094-.151-6.593l-23.464-12.945c-2.651-1.475-2.621-2.288-3.404-4.967l-7.018-24.596c-1.416-4.997-2.982-5.419-6.717-1.806l-18.374 17.791c-2.018 1.957-2.38 2.679-5.422 2.619l-26.808-.512c-5.211-.12-5.753.963-3.404 5.63l10.964 23.813c1.175 2.559.783 5.028-.241 7.918l-8.404 23.572c-1.868 4.847-.994 5.75 4.187 5.088l24.549-3.281c2.56-.331 6.175.632 8.223 2.198l19.609 15.143c4.157 3.131 5.362 2.8 6.175-2.348l4.518-24.596c.573-3.011 1.446-5.359 3.766-6.985z" fill="#fece85" fill-rule="evenodd"/></g><g><path clip-rule="evenodd" d="m501.48 209.2 10.422-61.084c.874-5.088-4.217-9.393-9.398-9.393h-45.604c-5.151 0-10.271 4.305-9.398 9.393l10.452 61.084c.874 5.088 4.217 9.393 9.398 9.393h24.73c5.15 0 8.524-4.305 9.398-9.393z" fill="#80d261" fill-rule="evenodd"/></g><g><path clip-rule="evenodd" d="m492.413 430.745 16.808-20.201c3.464-3.914 3.193-5.088-1.868-6.352l-26.055-6.443c-2.952-.723-3.133-1.505-4.578-3.914l-13.163-21.977c-2.651-4.456-4.277-4.456-6.958 0l-13.163 21.977c-1.446 2.408-1.627 3.191-4.578 3.914l-26.055 6.443c-5.06 1.264-5.301 2.439-1.837 6.352l16.778 20.201c1.807 2.168 2.048 4.666 1.807 7.707l-1.988 24.987c-.572 5.178.512 5.81 5.362 3.853l22.892-9.543c2.41-.993 6.145-.993 8.524 0l22.922 9.543c4.819 1.957 5.904 1.325 5.362-3.853l-2.018-24.987c-.242-3.041-.001-5.54 1.806-7.707z" fill="#fece85" fill-rule="evenodd"/></g><g><path clip-rule="evenodd" d="m377.861 464.794-46.598-32.995c-3.886-2.77-8.886-3.372-12.259 0l-16.085 16.076c-3.374 3.372-2.771 8.369 0 12.253l33.013 46.573c2.741 3.884 8.856 3.372 12.229 0l29.7-29.684c3.374-3.372 3.886-9.484 0-12.223z" fill="#80d261" fill-rule="evenodd"/></g><g><path clip-rule="evenodd" d="m309.787 292.562c-8.073-11.44-17.38-23.061-27.411-34.38-4.368-4.937-8.886-9.814-13.494-14.601-.06-.09-.151-.181-.241-.241-5.03-4.877-10.151-9.604-15.362-14.21-10.904-9.604-22.049-18.515-33.073-26.342-.03 0-.03 0-.03 0-6.205-4.425-12.35-8.46-18.374-12.072-4.548-2.74-9.006-5.208-13.374-7.436-31.025-15.715-57.05-17.702-66.719 5.569-.211.482-1.898 5.058-3.193 7.888l-9.82 27.576-16.506 46.362-23.886 67.105-18.766 52.805-20.935 58.765c-5.151 14.511-3.584 25.319 3.072 30.828 5.512 6.653 16.326 8.219 30.844 3.071l58.797-20.923 52.833-18.756 67.141-23.873 46.387-16.498 27.591-9.814c2.831-1.295 7.41-2.98 7.892-3.191 22.681-9.393 21.386-34.38 6.717-64.365-2.59-5.329-5.633-10.808-9.006-16.407-3.343-5.539-7.048-11.169-11.055-16.829-.029-.001-.029-.031-.029-.031z" fill="#80d261" fill-rule="evenodd"/></g><g><path clip-rule="evenodd" d="m282.376 258.181c-4.368-4.937-8.886-9.814-13.494-14.601-.06-.09-.151-.181-.241-.241-5.03-4.877-10.151-9.604-15.362-14.21-.301-.241-.572-.512-.874-.753-10.302-9.032-20.844-17.461-31.266-24.927-.301-.211-.633-.452-.934-.662-.03 0-.03 0-.03 0-6.205-4.425-12.35-8.46-18.374-12.102-4.458-2.649-8.916-5.148-13.374-7.406-12.771-6.473-24.73-10.597-35.001-11.621 11.296 6.653 22.561 14.541 33.194 22.85 3.012 2.348 5.994 4.727 8.886 7.135 3.856 3.161 7.56 6.352 11.145 9.513 1.627 1.415 3.223 2.86 4.85 4.305v.03c3.554 3.221 7.079 6.503 10.512 9.844l.271.241c14.669 15.203 29.127 32.333 40.905 49.011 7.259 10.176 14.79 22.428 20.061 33.236 14.669 30.015 15.964 54.972-6.717 64.395-.09.03-.361.12-.723.271 5.753 10.988 9.88 21.375 11.868 30.707l27.591-9.814c2.831-1.295 7.41-2.98 7.892-3.191 22.681-9.393 21.386-34.38 6.717-64.365-.09-.211-.181-.391-.301-.602-2.5-5.088-5.482-10.477-8.705-15.805-.271-.452-.572-.903-.843-1.385 0 0-.03-.03-.03-.06-3.283-5.359-6.777-10.597-10.181-15.384-.03 0-.03-.03-.03-.03-7.44-10.567-15.934-21.254-25.061-31.731-.784-.901-1.567-1.774-2.351-2.648z" fill="#4fc122" fill-rule="evenodd"/></g><g><path clip-rule="evenodd" d="m287.678 403.199c-6.446-30.406-35.724-72.162-70.635-108.289-36.146-34.892-77.924-64.154-108.347-70.597l-16.506 46.362c26.868 12.283 58.195 35.916 86.177 62.89 26.989 27.968 50.634 59.277 62.924 86.131z" fill="#fece85" fill-rule="evenodd"/></g><g><path clip-rule="evenodd" d="m174.15 443.57 67.141-23.873c-4.187-9.182-9.729-18.876-16.266-28.781l-70.906 25.198c7.35 9.182 14.127 18.394 20.031 27.456z" fill="#4fc122" fill-rule="evenodd"/></g><g><path clip-rule="evenodd" d="m287.678 403.199c-1.988-9.333-6.115-19.719-11.868-30.707-1.536.572-4.91 1.867-7.169 2.92l-43.616 15.504c6.536 9.905 12.079 19.599 16.266 28.781z" fill="#fdb440" fill-rule="evenodd"/></g><g><path clip-rule="evenodd" d="m174.15 443.57c-12.681-19.418-29.278-39.679-47.381-58.434-18.766-18.093-39.037-34.681-58.466-47.356l-18.766 52.805c13.043 9.965 26.115 21.254 38.525 33.236 11.988 12.403 23.284 25.469 33.254 38.505z" fill="#fece85" fill-rule="evenodd"/></g><g><path clip-rule="evenodd" d="m121.317 462.325c-6.838-8.941-14.308-17.913-22.199-26.673l-73.436 26.101c-.783 8.309 1.386 14.631 5.994 18.424 5.512 6.653 16.326 8.219 30.844 3.071z" fill="#4fc122" fill-rule="evenodd"/></g><g><path clip-rule="evenodd" d="m174.15 443.57c-5.904-9.062-12.681-18.274-20.031-27.456l-55.002 19.538c7.892 8.761 15.362 17.732 22.199 26.673z" fill="#fdb440" fill-rule="evenodd"/></g><g><path clip-rule="evenodd" d="m111.769 71.92 21.416-15.143c4.337-2.89 4.398-4.094-.151-6.593l-23.464-12.945c-2.651-1.475-2.621-2.288-3.404-4.967l-7.018-24.596c-1.416-4.997-2.982-5.419-6.717-1.806l-8.103 7.857c3.283 10.657 5.091 22.398 5.091 34.711 0 16.287-3.163 31.55-8.675 44.616l16.567 12.795c4.157 3.131 5.362 2.8 6.175-2.348l4.518-24.596c.572-3.011 1.445-5.359 3.765-6.985z" fill="#fdb440" fill-rule="evenodd"/></g><g><path clip-rule="evenodd" d="m68.575 210.645-5.753-61.716c-.482-5.118-6.506-7.978-11.506-6.623l-10.121 2.709c1.114 6.533 1.687 13.367 1.687 20.381 0 22.218-5.874 42.509-15.573 57.983 2.319 3.884 6.265 6.352 10.723 5.178l23.886-6.412c5-1.324 7.139-6.352 6.657-11.5z" fill="#4fc122" fill-rule="evenodd"/></g><g><path clip-rule="evenodd" d="m342.619 33.355c2.53-3.041.813-7.827-2.621-9.784l-30.121-17.401c-1.807-1.024-4.006-1.264-5.934-.723 3.705 11.199 5.753 23.663 5.753 36.819 0 10.898-1.416 21.345-4.006 30.978 2.5.03 4.94-1.355 6.717-3.522z" fill="#4fc122" fill-rule="evenodd"/></g><g><path clip-rule="evenodd" d="m473.406 57.5c-.934-2.649-1.295-4.907-.211-7.285l10.091-21.947c2.139-4.275 1.657-5.268-3.163-5.178l-24.669.482c-2.801.03-3.163-.632-5-2.408l-9.277-8.971c1.386 7.225 2.108 14.812 2.108 22.639 0 24.747-7.319 47.115-19.067 63.071.813 1.445 2.169.963 4.789-1.024l18.103-13.939c1.868-1.445 5.211-2.348 7.56-2.017l22.621 3.011c4.789.602 5.572-.211 3.856-4.696z" fill="#fdb440" fill-rule="evenodd"/></g><g><path clip-rule="evenodd" d="m501.48 209.2 10.422-61.084c.874-5.088-4.217-9.393-9.398-9.393h-19.85c.361 3.793.542 7.677.542 11.621 0 26.402-8.314 50.065-21.446 66.171 1.506 1.295 3.374 2.077 5.603 2.077h24.73c5.149.001 8.523-4.304 9.397-9.392z" fill="#4fc122" fill-rule="evenodd"/></g><g><path clip-rule="evenodd" d="m348.162 506.7 29.7-29.684c3.374-3.372 3.886-9.483 0-12.223l-44.73-31.671c2.621 9.664 4.036 20.11 4.036 31.039 0 12.975-2.018 25.288-5.603 36.367l4.368 6.172c2.74 3.884 8.855 3.372 12.229 0z" fill="#4fc122" fill-rule="evenodd"/></g><g><path clip-rule="evenodd" d="m492.413 430.745 16.808-20.201c3.464-3.914 3.193-5.088-1.868-6.352l-26.055-6.443c-2.952-.723-3.133-1.505-4.578-3.914l-13.163-21.977c-2.651-4.456-4.277-4.456-6.958 0l-4.217 7.045c4.157 11.741 6.476 24.957 6.476 38.956 0 15.113-2.711 29.353-7.5 41.756l4.458-1.867c2.41-.993 6.145-.993 8.524 0l22.922 9.543c4.819 1.957 5.904 1.325 5.362-3.853l-2.018-24.987c-.241-3.04 0-5.539 1.807-7.706z" fill="#fdb440" fill-rule="evenodd"/></g></g></svg>