<?xml version="1.0" encoding="iso-8859-1"?>
<!-- Generator: Adobe Illustrator 19.0.0, SVG Export Plug-In . SVG Version: 6.00 Build 0)  -->
<svg version="1.1" id="Capa_1" xmlns="http://www.w3.org/2000/svg" xmlns:xlink="http://www.w3.org/1999/xlink" x="0px" y="0px"
	 viewBox="0 0 480 480" style="enable-background:new 0 0 480 480;" xml:space="preserve">
<g>
	<g>
		<path d="M224,160h-16c-4.418,0-8,3.582-8,8s3.582,8,8,8h16c4.418,0,8-3.582,8-8S228.418,160,224,160z"/>
	</g>
</g>
<g>
	<g>
		<path d="M272,160h-16c-4.418,0-8,3.582-8,8s3.582,8,8,8h16c4.418,0,8-3.582,8-8S276.418,160,272,160z"/>
	</g>
</g>
<g>
	<g>
		<path d="M168,216c-2.414-0.023-4.815,0.344-7.112,1.088c-5.715,1.764-10.565,5.599-13.6,10.752
			c-0.961,1.53-1.699,3.19-2.192,4.928c-0.753,2.336-1.123,4.778-1.096,7.232c0,13.255,10.745,24,24,24s24-10.745,24-24
			S181.255,216,168,216z M168,248c-4.418,0-8-3.582-8-8c0.004-0.907,0.158-1.807,0.456-2.664c0.131-0.471,0.339-0.917,0.616-1.32
			c1.066-1.786,2.761-3.11,4.752-3.712c0.705-0.216,1.439-0.319,2.176-0.304c4.418,0,8,3.582,8,8S172.418,248,168,248z"/>
	</g>
</g>
<g>
	<g>
		<path d="M396.048,107.23c-11.464-6.654-26.151-2.755-32.805,8.709c-2.126,3.664-3.245,7.825-3.243,12.061
			c-0.017,8.556,4.542,16.468,11.952,20.744c11.464,6.654,26.151,2.755,32.805-8.709S407.512,113.884,396.048,107.23z M384,136
			c-4.418-0.019-7.985-3.616-7.966-8.034c0.012-2.852,1.541-5.481,4.014-6.902c1.2-0.697,2.564-1.064,3.952-1.064
			c4.418,0,8,3.582,8,8S388.418,136,384,136z"/>
	</g>
</g>
<g>
	<g>
		<path d="M344.033,144.033c-4.224-0.006-8.375,1.103-12.033,3.215c-7.44,4.257-12.022,12.18-12,20.752
			c-0.018,13.255,10.713,24.015,23.967,24.033S367.982,181.32,368,168.065C368.018,154.81,357.287,144.051,344.033,144.033z
			 M344,176c-4.418-0.019-7.985-3.616-7.966-8.034c0.012-2.852,1.541-5.481,4.014-6.902c1.2-0.697,2.564-1.064,3.952-1.064
			c4.418,0,8,3.582,8,8S348.418,176,344,176z"/>
	</g>
</g>
<g>
	<g>
		<path d="M384.257,184c-0.086,0-0.171,0-0.257,0c-13.255,0-24,10.745-24,24s10.745,24,24,24s24-10.745,24-24
			C408.071,194.816,397.441,184.071,384.257,184z M384,216c-4.418,0-8-3.582-8-8s3.582-8,8-8s8,3.582,8,8S388.418,216,384,216z"/>
	</g>
</g>
<g>
	<g>
		<path d="M424,144c-13.255,0-24,10.745-24,24s10.745,24,24,24s24-10.745,24-24S437.255,144,424,144z M424,176c-4.418,0-8-3.582-8-8
			s3.582-8,8-8s8,3.582,8,8S428.418,176,424,176z"/>
	</g>
</g>
<g>
	<g>
		<path d="M335.016,233.224c-0.486-1.838-1.232-3.597-2.216-5.224c-2.989-5.175-7.806-9.045-13.504-10.848
			c-2.352-0.781-4.817-1.171-7.296-1.152c-13.255,0-24,10.745-24,24s10.745,24,24,24s24-10.745,24-24
			C336.028,237.704,335.696,235.417,335.016,233.224z M312,248c-4.418,0-8-3.582-8-8s3.582-8,8-8
			c0.79-0.012,1.577,0.107,2.328,0.352c1.981,0.64,3.65,1.999,4.68,3.808c0.317,0.505,0.547,1.059,0.68,1.64
			c0.216,0.713,0.322,1.455,0.312,2.2C320,244.418,316.418,248,312,248z"/>
	</g>
</g>
<g>
	<g>
		<path d="M68.944,144H32v48h36.944l12-24L68.944,144z M59.056,176H48v-16h11.056l4,8L59.056,176z"/>
	</g>
</g>
<g>
	<g>
		<path d="M72,104v36.944l24,12l24-12V104H72z M104,131.056l-8,4l-8-4V120h16V131.056z"/>
	</g>
</g>
<g>
	<g>
		<path d="M96,183.056l-24,12V232h48v-36.944L96,183.056z M104,216H88v-11.056l8-4l8,4V216z"/>
	</g>
</g>
<g>
	<g>
		<path d="M123.056,144l-12,24l12,24H160v-48H123.056z M144,176h-11.056l-4-8l4-8H144V176z"/>
	</g>
</g>
<g>
	<g>
		<path d="M479.76,162c-0.003-1.253-0.094-2.504-0.272-3.744c-0.114-1.499-0.304-2.992-0.568-4.472
			c-0.116-1.075-0.287-2.143-0.512-3.2c-0.184-1.088-0.376-2.184-0.584-2.992c-0.288-1.296-0.56-2.496-0.8-3.368
			c-0.109-0.541-0.25-1.076-0.424-1.6c-0.304-1.36-0.728-2.664-1.16-4l-0.296-0.888c-0.344-1.072-0.688-2.088-1.04-2.928
			c-0.52-1.456-1.04-2.904-1.736-4.472l-0.696-1.528c-0.4-0.896-0.8-1.784-1.136-2.456c-0.544-1.176-1.16-2.352-1.784-3.52
			l-0.432-1.232l-0.576-0.608c-0.456-0.8-0.968-1.704-1.72-3.048l-2.4-3.632c-0.448-0.664-0.944-1.384-1.416-2.024l-0.52-0.8
			c-2.055-2.806-4.258-5.5-6.6-8.072l-3.072-3.36l-0.224-0.112c-0.608-0.608-1.184-1.16-1.6-1.48
			c-0.736-0.736-1.472-1.392-2.344-2.176c-1.461-1.35-2.988-2.627-4.576-3.824c-1.512-1.168-3.032-2.344-4.936-3.648
			c-0.438-0.335-0.895-0.645-1.368-0.928c-1.6-1.024-3.2-1.984-5.152-3.2c-2.545-1.464-5.161-2.799-7.84-4V56c0-4.418-3.582-8-8-8
			H352c-4.418,0-8,3.582-8,8v24.8c-1.072,0.496-2.136,1-3.336,1.6c-1.464,0.736-2.92,1.472-4,2.112
			c-0.944,0.504-1.896,1.088-2.856,1.688l-1.112,0.68c-1.655,0.983-3.257,2.051-4.8,3.2c-1.008,0.728-1.992,1.456-2.608,1.976
			c-1.216,0.88-2.464,1.912-3.784,3.032c-0.336,0.288-0.68,0.608-1.016,0.912H159.456c-0.4-0.352-0.752-0.696-1.184-1.056
			c-1.144-0.976-2.4-2.008-3.2-2.592c-1.008-0.8-1.992-1.544-2.84-2.152c-1.597-1.214-3.258-2.341-4.976-3.376l-1.08-0.664
			c-0.96-0.6-1.912-1.184-2.536-1.504c-1.368-0.8-2.824-1.6-4.456-2.4c-1.144-0.568-2.24-1.104-3.2-1.52V56c0-4.418-3.582-8-8-8H64
			c-4.418,0-8,3.582-8,8v24.8c-2.817,1.258-5.567,2.66-8.24,4.2c-1.6,0.952-3.2,1.912-4.36,2.696
			c-0.713,0.422-1.403,0.884-2.064,1.384c-1.6,1.088-3.12,2.264-4.76,3.536c-1.593,1.2-3.12,2.485-4.576,3.848
			c-0.736,0.648-1.472,1.304-1.872,1.72c-0.616,0.544-1.224,1.136-1.888,1.8l-3.288,3.456c-2.501,2.744-4.834,5.637-6.984,8.664
			l-0.056,0.08c-0.496,0.68-1.04,1.456-1.528,2.192l-2.8,4.264c-0.44,0.848-0.896,1.64-1.392,2.504l-0.944,1.736
			c-0.616,1.16-1.208,2.296-1.68,3.296c-0.424,0.856-0.8,1.744-1.216,2.64l-0.8,1.728c-0.6,1.368-1.12,2.816-1.552,4.088
			c-0.44,1.024-0.8,2.04-1.128,3.112l-0.312,0.928c-0.424,1.296-0.8,2.592-1.136,3.944c-0.144,0.384-0.251,0.78-0.32,1.184
			c-0.368,1.296-0.64,2.496-0.864,3.52s-0.464,2.176-0.696,3.512c-0.178,0.816-0.311,1.641-0.4,2.472
			c-0.272,1.648-0.512,3.296-0.632,4.952c-0.161,1.022-0.243,2.054-0.248,3.088C0.088,163.56,0,165.784,0,168v208
			c0.035,30.913,25.087,55.965,56,56h10.56c25.695,0.023,48.1-17.467,54.312-42.4l26.576-106.4
			c23.668,11.532,52.204,1.694,63.737-21.974c3.22-6.609,4.868-13.874,4.815-21.226h48c-0.204,26.319,20.965,47.82,47.284,48.025
			c7.367,0.057,14.647-1.594,21.268-4.825l26.576,106.4c6.212,24.933,28.617,42.423,54.312,42.4H424
			c30.913-0.035,55.965-25.087,56-56V168C480,165.784,479.912,163.56,479.76,162z M360,64h48v11.04
			c-0.152-0.04-0.312-0.048-0.464-0.088c-0.552-0.136-1.12-0.272-1.6-0.376c-2.373-0.606-4.776-1.084-7.2-1.432
			c-0.704-0.12-1.6-0.224-2.4-0.344l-0.344-0.048c-1.796-0.256-3.603-0.418-5.416-0.488c-2.104-0.168-4.248-0.24-6.312-0.248L384,72
			h-0.056c-2.184,0-4.28,0.088-6.12,0.24c-1.93,0.074-3.855,0.245-5.768,0.512l-0.408,0.056c-0.8,0.104-1.6,0.216-2.256,0.32
			c-2.323,0.322-4.626,0.779-6.896,1.368c-0.408,0.08-0.8,0.208-1.232,0.304s-0.848,0.136-1.264,0.24V64z M72,64h48v11.04
			c-0.152-0.04-0.312-0.048-0.464-0.088c-0.552-0.136-1.12-0.272-1.6-0.376c-2.373-0.606-4.776-1.084-7.2-1.432
			c-0.704-0.12-1.6-0.224-2.4-0.344l-0.344-0.048c-1.796-0.256-3.604-0.418-5.416-0.488c-2.104-0.168-4.248-0.24-6.312-0.248L96,72
			h-0.056c-2.184,0-4.28,0.088-6.12,0.24c-1.93,0.074-3.855,0.245-5.768,0.512l-0.408,0.056c-0.8,0.104-1.6,0.216-2.256,0.32
			c-2.323,0.322-4.626,0.779-6.896,1.368c-0.408,0.08-0.8,0.208-1.232,0.304c-0.432,0.096-0.848,0.136-1.264,0.24V64z
			 M105.36,385.736c-4.465,17.791-20.457,30.265-38.8,30.264H56c-22.08-0.026-39.974-17.92-40-40V221.016
			c0.064,0.096,0.136,0.176,0.2,0.264c1.979,2.93,4.116,5.75,6.4,8.448c0.624,0.736,1.304,1.424,1.952,2.152
			c1.728,1.928,3.512,3.8,5.392,5.6c0.88,0.8,1.776,1.6,2.688,2.4c1.84,1.6,3.752,3.2,5.72,4.656c0.904,0.688,1.8,1.392,2.728,2.048
			c2.587,1.808,5.253,3.491,8,5.048c0.352,0.192,0.672,0.432,1.024,0.616c3.138,1.704,6.37,3.229,9.68,4.568
			c0.968,0.4,1.96,0.72,2.944,1.08c2.4,0.904,4.888,1.72,7.4,2.4c1.2,0.344,2.4,0.648,3.624,0.936c2.496,0.6,5.032,1.08,7.6,1.472
			c1.136,0.176,2.264,0.384,3.416,0.52c3.725,0.481,7.476,0.74,11.232,0.776c1.672,0,3.464-0.072,5.512-0.168h0.544h0.168
			c1.272-0.088,2.608-0.184,3.496-0.312c2.98-0.261,5.942-0.693,8.872-1.296c1.499-0.256,2.982-0.601,4.44-1.032
			c1.744-0.392,3.472-0.856,5.256-1.4c0.336,0.744,0.8,1.408,1.184,2.136c0.744,1.448,1.488,2.896,2.4,4.264
			c0.608,0.936,1.312,1.8,1.984,2.696c0.912,1.208,1.824,2.4,2.848,3.536c0.264,0.288,0.464,0.632,0.744,0.92L105.36,385.736z
			 M120,240c0,1.44,0.064,2.864,0.192,4.28h-0.04c-1.552,0.488-3.096,0.912-5.12,1.384c-1.131,0.33-2.279,0.598-3.44,0.8
			c-2.487,0.503-5,0.869-7.528,1.096c-1.064,0.128-2.056,0.2-3.048,0.264c-1.6,0.08-3.352,0.152-4.984,0.152
			C51.866,247.945,16.062,212.166,16,168c0-1.784,0.072-3.56,0.24-6c0.001-0.536,0.047-1.071,0.136-1.6l0.088-0.8
			c0.064-1.256,0.28-2.504,0.536-4.24c0.048-0.48,0.16-0.944,0.368-2.072c0.112-0.672,0.216-1.352,0.456-2.296
			c0.24-0.944,0.392-1.824,0.672-2.768l0.08-0.368l0.4-1.464c0.195-0.883,0.449-1.751,0.76-2.6l0.36-1.088
			c0.192-0.608,0.376-1.2,0.896-2.504c0.384-1.088,0.8-2.176,1.128-3.008l0.84-1.848c0.296-0.672,0.592-1.344,1-2.16
			c0.408-0.816,0.8-1.6,1.208-2.4l0.84-1.6c0.552-0.976,1.08-1.896,1.296-2.4l2.4-3.568c0.4-0.6,0.848-1.256,1.256-1.792h0.12
			l0.416-0.8c1.673-2.262,3.459-4.438,5.352-6.52l2.448-2.592c0.504-0.504,1.048-1.04,1.816-1.736
			c0.48-0.48,0.968-0.904,1.984-1.816c1.092-1.007,2.235-1.958,3.424-2.848c1.272-0.984,2.52-1.96,3.8-2.832l1.408-0.968
			c1.44-0.928,2.872-1.8,4.448-2.744c3.353-1.932,6.852-3.602,10.464-4.992l0.96-0.392c1.72-0.64,3.456-1.208,5.2-1.736l2.88-0.8
			c1.264-0.328,2.536-0.624,3.808-0.888c0.936-0.216,1.904-0.408,2.888-0.568c2.048-0.352,4.096-0.664,6.152-0.856h0.288
			c4.541-0.388,9.107-0.388,13.648,0c0.984,0.056,1.976,0.2,2.96,0.32c3.71,0.436,7.386,1.128,11,2.072l2.904,0.8
			c1.864,0.568,3.728,1.16,5.6,1.864c0.328,0.128,0.616,0.232,0.968,0.384c0.983,0.358,1.945,0.772,2.88,1.24
			c1.096,0.488,2.184,1.032,3.448,1.664c1.104,0.552,2.208,1.096,3.568,1.896c0.648,0.352,1.304,0.8,1.952,1.168l1.264,0.8
			c1.278,0.775,2.514,1.616,3.704,2.52c0.8,0.56,1.52,1.112,2.672,2.032c0.88,0.632,1.768,1.392,2.784,2.248s1.896,1.68,2.752,2.48
			c1.712,1.6,3.336,3.336,4.904,5.04l0.656,0.728c1.199,1.35,2.328,2.76,3.384,4.224c0.28,0.376,0.544,0.712,0.848,1.112
			c0.651,0.806,1.244,1.656,1.776,2.544c0.68,0.952,1.368,1.968,1.864,2.792l2,3.536c0.552,1.032,1.112,2.08,1.728,3.376
			c0.176,0.36,0.32,0.736,0.488,1.104c0.696,1.432,1.328,2.872,1.912,4.352l0.432,1.152l0.128,0.344
			c0.632,1.688,1.208,3.456,1.824,5.6c0.256,0.8,0.432,1.528,0.624,2.264c0.416,1.704,0.848,3.48,1.24,5.776
			c0.129,0.528,0.231,1.062,0.304,1.6c0.288,1.8,0.504,3.592,0.704,5.92c0.102,0.664,0.153,1.336,0.152,2.008
			c0,0.208,0,0.36,0,0.616c0.064,1.384,0.136,2.712,0.136,4.112c0,1.6-0.08,3.36-0.168,5.144c-0.056,0.952-0.128,1.912-0.28,3.2
			c-0.227,2.509-0.595,5.004-1.104,7.472c-0.236,1.252-0.535,2.49-0.896,3.712c-0.344,1.544-0.8,3.096-1.248,4.608v0.072
			c-0.424-0.04-0.864,0-1.296,0c-1.448-0.096-2.896-0.112-4.368-0.064c-0.696,0-1.384,0-2.088,0.072
			c-2.15,0.145-4.288,0.431-6.4,0.856c-6.874,1.403-13.354,4.307-18.976,8.504C127.149,210.695,120.045,224.902,120,240z M168,272
			c-14.81,0.076-27.703-10.104-31.064-24.528c-0.634-2.44-0.949-4.951-0.936-7.472c0.035-10.064,4.77-19.534,12.8-25.6
			c5.661-4.247,12.571-6.498,19.648-6.4c0.224,0,0.448,0,0.664,0c2.102,0.057,4.191,0.341,6.232,0.848c0.088,0,0.184,0,0.272,0.048
			h0.072c12.02,2.937,21.25,12.57,23.672,24.704v0.112c0.435,2.068,0.649,4.175,0.64,6.288C200,257.673,185.673,272,168,272z
			 M277.064,207.136c-1.315,1.385-2.544,2.849-3.68,4.384c-0.344,0.456-0.632,0.944-0.96,1.416c-0.805,1.173-1.56,2.384-2.264,3.632
			c-0.352,0.624-0.696,1.24-1.016,1.88c-0.704,1.408-1.341,2.848-1.912,4.32c-0.152,0.4-0.336,0.8-0.48,1.168V224h-53.48
			l-0.064-0.16c-0.056-0.16-0.136-0.32-0.2-0.48c-0.648-1.737-1.398-3.433-2.248-5.08c-0.256-0.512-0.536-1.016-0.8-1.52
			c-0.8-1.4-1.6-2.752-2.536-4.064c-0.256-0.368-0.488-0.752-0.752-1.112c-1.152-1.556-2.397-3.041-3.728-4.448
			c-0.408-0.432-0.848-0.8-1.264-1.248c-1-0.984-2.032-1.92-3.12-2.816c-0.544-0.448-1.088-0.904-1.656-1.328
			c-1.302-0.989-2.656-1.908-4.056-2.752c-0.504-0.304-1.008-0.6-1.52-0.88c-1.16-0.648-2.336-1.28-3.552-1.824
			c0.176-0.592,0.328-1.152,0.488-1.72c0.056-0.192,0.12-0.4,0.168-0.592c0.248-0.888,0.456-1.728,0.616-2.448
			c0.472-1.6,0.864-3.288,1.12-4.704c0.599-2.907,1.034-5.845,1.304-8.8c0.16-1.296,0.248-2.512,0.368-4.296
			c0.12-1.784,0.16-3.856,0.16-5.728c0-1.664-0.08-3.248-0.16-4.896c0-0.48,0-0.944-0.056-1.416c0-0.192,0-0.392,0-0.568
			c-0.048-0.664-0.112-1.256-0.184-1.696c-0.184-2.208-0.44-4.408-0.744-6.296c-0.105-0.832-0.257-1.657-0.456-2.472
			c-0.352-2.224-0.88-4.448-1.416-6.616c-0.288-1.152-0.592-2.304-0.864-3.12c-0.608-2.133-1.28-4.189-2.016-6.168l-0.552-1.504
			c-0.952-2.4-1.992-4.8-3.072-7.032c-0.624-1.336-1.328-2.664-2.04-4c-0.44-0.8-0.912-1.6-1.392-2.48l-0.88-1.544
			c-0.8-1.376-1.744-2.752-2.4-3.592c-0.656-0.84-1.08-1.656-1.6-2.4l-0.152-0.2h132l-0.144,0.216
			c-0.536,0.72-1.008,1.416-1.328,1.952c-0.912,1.288-1.832,2.664-2.768,4.24l-0.8,1.344c-0.48,0.84-0.952,1.656-1.488,2.672
			l-0.744,1.432c-0.248,0.432-0.496,0.888-0.72,1.352l-0.928,1.856c-0.584,1.296-1.168,2.68-1.864,4.424l-0.104,0.256l-0.304,0.664
			c-0.408,0.936-0.728,1.864-0.984,2.616c-0.688,1.904-1.304,3.8-1.824,5.6c-0.384,1.152-0.688,2.304-0.936,3.32
			c-0.544,1.992-0.992,4.08-1.36,6.168l-0.04,0.2c-0.185,0.699-0.322,1.41-0.408,2.128c-0.064,0.304-0.12,0.664-0.168,1.072
			l-0.144,1.016c-0.192,1.472-0.344,2.968-0.512,4.68c-0.088,0.64-0.16,1.224-0.192,1.8c-0.032,0.576-0.088,1.224-0.096,1.84
			l-0.064,0.728C288,165.056,288,166.488,288,168c0,1.872,0.08,3.84,0.2,6.28c0.088,1.216,0.176,2.4,0.304,3.472
			c0.266,2.972,0.701,5.926,1.304,8.848c0.255,1.479,0.594,2.943,1.016,4.384c0.12,0.56,0.256,1.128,0.408,1.68l0.048,2.328
			l0.752,1.4c-1.336,0.608-2.64,1.28-3.904,2l-0.208,0.104c-1.71,1.009-3.356,2.123-4.928,3.336c-0.48,0.36-0.944,0.744-1.408,1.128
			c-1.152,0.944-2.248,1.936-3.312,2.984C277.872,206.344,277.472,206.744,277.064,207.136z M343.04,247.568v0.056
			C339.618,261.977,326.755,272.079,312,272c-17.673,0-32-14.327-32-32c-0.016-2.15,0.199-4.296,0.64-6.4
			c2.492-12.154,11.797-21.765,23.864-24.648c2.095-0.522,4.241-0.814,6.4-0.872c0.2,0,0.392,0,0.592,0
			c2.391-0.039,4.779,0.189,7.12,0.68c4.551,0.946,8.838,2.885,12.552,5.68C339.2,220.49,343.946,229.944,344,240
			C344.009,242.554,343.686,245.097,343.04,247.568z M340.8,201.6c-5.601-4.215-12.065-7.141-18.928-8.568
			c-2.112-0.427-4.25-0.713-6.4-0.856c-0.696-0.056-1.384-0.056-2.08-0.08c-1.488-0.048-2.952,0-4.4,0.056c-0.392,0-0.8,0-1.192,0
			l-0.344-0.72c-0.08-0.248-0.136-0.504-0.2-0.752l-0.296-1.16c0-0.096-0.056-0.2-0.088-0.296l-0.072-0.232l-0.376-1.424
			c-0.04-0.176-0.072-0.312-0.136-0.568c-0.328-1.137-0.595-2.29-0.8-3.456c-0.505-2.479-0.871-4.984-1.096-7.504
			c-0.12-1.016-0.192-1.976-0.264-3.072C304.08,171.36,304,169.64,304,168c0-0.536,0-1.056,0-1.6v-0.28c0-0.48,0-0.984,0-1.552
			c0-0.144,0-0.32,0-0.48l0.28-3.312c0.152-1.6,0.36-3.28,0.576-4.92l0.472-2.64v-0.136l0.04-0.248c0.272-1.6,0.616-3.2,1.064-4.856
			c0.2-0.8,0.376-1.536,0.704-2.528c0.52-1.696,1.032-3.32,1.68-5.12c0.176-0.504,0.336-1.016,0.544-1.496
			c0.112-0.232,0.376-0.848,0.472-1.088c0.368-0.968,0.8-1.928,1.232-2.896l0.384-0.872l0.584-1.192
			c0.2-0.464,0.427-0.915,0.68-1.352l2.744-4.984c0.616-1.024,1.304-2.04,2.28-3.44c0.53-0.867,1.123-1.693,1.776-2.472l0.688-0.92
			c0.848-1.128,1.768-2.264,2.888-3.568c0.596-0.758,1.232-1.485,1.904-2.176c1.048-1.176,2.152-2.28,3.504-3.56l0.416-0.424
			c0.952-0.88,1.904-1.76,3.032-2.712c0.952-0.72,1.84-1.48,3.112-2.376c0.76-0.616,1.52-1.168,2.4-1.848
			c1.128-0.861,2.3-1.662,3.512-2.4l1.296-0.8c0.648-0.4,1.304-0.8,2.272-1.352c0.968-0.552,2.144-1.16,3.408-1.792
			c1.104-0.552,2.192-1.096,3.648-1.752c0.939-0.46,1.903-0.866,2.888-1.216l0.648-0.256c1.848-0.712,3.728-1.312,5.6-1.88
			l2.128-0.048l0.752-0.752c1.264-0.328,2.536-0.624,3.808-0.888c0.936-0.216,1.904-0.408,2.888-0.568
			c2.048-0.352,4.096-0.664,6.152-0.856h0.288c4.541-0.388,9.107-0.388,13.648,0c0.984,0.056,1.976,0.2,2.96,0.32
			c3.71,0.436,7.385,1.128,11,2.072l0.8,0.8h2.064c1.408,0.424,2.816,0.904,4.208,1.408c0.664,0.256,1.304,0.456,2.064,0.8
			c3.591,1.394,7.069,3.065,10.4,5c1.432,0.856,2.864,1.728,4.936,3.08l0.728,0.512c1.328,0.904,2.576,1.88,4.056,3.032
			c1.136,0.864,2.216,1.736,3.088,2.544l0.664,0.624c0.48,0.424,0.968,0.848,1.784,1.648c0.52,0.456,1.032,0.968,1.552,1.488
			l2.4,2.536c1.872,2.064,3.6,4.136,5.272,6.4l0.608,0.92c0.408,0.536,0.856,1.192,1.24,1.76l2,2.936
			c0.552,1.04,1.112,2.024,1.72,3.088l0.384,1.12l0.488,0.52c0.408,0.8,0.8,1.6,1.24,2.448c0.32,0.64,0.616,1.312,0.912,1.984
			l0.752,1.656c0.448,1.024,0.8,2.112,1.488,3.912c0.248,0.592,0.432,1.184,0.624,1.792l0.344,1.04
			c0.326,0.864,0.593,1.748,0.8,2.648l0.48,1.832c0.28,0.944,0.472,1.824,0.736,3.04c0.176,0.672,0.28,1.352,0.52,2.672
			c0.08,0.48,0.192,0.944,0.304,1.904c0.22,1.245,0.378,2.5,0.472,3.76l0.088,0.8c0.111,0.744,0.164,1.496,0.16,2.248
			c0.144,1.784,0.216,3.56,0.216,5.344C463.852,212.19,428.11,247.921,384,248c-1.6,0-3.312-0.072-5.104-0.16
			c-0.968-0.064-1.936-0.136-3.24-0.288c-2.504-0.227-4.994-0.595-7.456-1.104c-1.252-0.233-2.49-0.529-3.712-0.888
			c-1.544-0.352-3.088-0.8-4.592-1.248l-0.088-0.04C359.936,242.864,360,241.44,360,240
			C359.956,224.902,352.852,210.694,340.8,201.6z M464,376c-0.026,22.08-17.92,39.974-40,40h-10.56
			c-18.343,0.016-34.34-12.461-38.792-30.256l-28.08-112.432c0.264-0.272,0.464-0.608,0.72-0.888
			c1.088-1.192,2.056-2.456,3.016-3.744c0.608-0.8,1.248-1.6,1.8-2.456c0.945-1.504,1.808-3.058,2.584-4.656
			c0.312-0.616,0.72-1.176,1.008-1.808l1.392,0.4l0.976,0.28c0.88,0.24,1.696,0.44,2.4,0.592c1.549,0.462,3.122,0.839,4.712,1.128
			c2.877,0.594,5.786,1.024,8.712,1.288h0.072h0.136c1.2,0.152,2.472,0.248,4.16,0.36c1.888,0.088,3.856,0.168,5.736,0.168
			c3.758-0.017,7.511-0.257,11.24-0.72c1.152-0.136,2.28-0.344,3.416-0.52c2.568-0.392,5.104-0.872,7.6-1.472
			c1.224-0.288,2.4-0.592,3.624-0.936c2.512-0.704,4.968-1.52,7.392-2.4c0.984-0.368,1.992-0.688,2.96-1.088
			c3.307-1.341,6.536-2.866,9.672-4.568c0.352-0.184,0.672-0.424,1.024-0.616c2.757-1.552,5.424-3.235,8-5.048
			c0.928-0.656,1.824-1.36,2.728-2.048c1.968-1.488,3.88-3.032,5.72-4.656c0.912-0.8,1.808-1.6,2.688-2.4
			c1.872-1.792,3.656-3.656,5.384-5.6c0.648-0.728,1.336-1.416,1.968-2.168c2.286-2.694,4.423-5.511,6.4-8.44
			c0.056-0.104,0.128-0.184,0.192-0.28V376z"/>
	</g>
</g>
<g>
</g>
<g>
</g>
<g>
</g>
<g>
</g>
<g>
</g>
<g>
</g>
<g>
</g>
<g>
</g>
<g>
</g>
<g>
</g>
<g>
</g>
<g>
</g>
<g>
</g>
<g>
</g>
<g>
</g>
</svg>
