<svg id="Capa_1" enable-background="new 0 0 512 512" height="512" viewBox="0 0 512 512" width="512" xmlns="http://www.w3.org/2000/svg"><g><path d="m257 512h-242c-8.401 0-15-6.601-15-15v-241c0-8.401 6.599-15 15-15h64.701c-1.8 4.799-2.701 9.6-2.701 15 0 25.499 21 45 45 45s45-19.501 45-45c0-5.4-.901-10.201-2.701-15h92.701l90 135z" fill="#ffe14d"/><path d="m257 512 90-136-90-135h-92.701c1.8 4.799 2.701 9.6 2.701 15 0 25.499-21 45-45 45v211z" fill="#fb3"/><path d="m512 241-120 120-135-120v-61.8c-5.7 1.199-10.8 1.8-15 1.8-24.901 0-45-20.101-45-45 0-24.901 20.099-45 45-45 4.2 0 9.3.599 15 1.8v-77.8c0-8.401 6.599-15 15-15h225c8.401 0 15 6.599 15 15z" fill="#ff9580"/><path d="m497 0h-103.837v359.837l118.837-118.837v-226c0-8.401-6.599-15-15-15z" fill="#f66"/><path d="m434.299 241c1.99 5.307 2.9 10.56 2.9 15.622 0 24.345-21.039 44.246-44.036 44.246-42.425 0-46.252-38.47-46.252-44.575 0-5.02.87-10.176 2.789-15.293h-92.7v92.699c5.034-1.888 10.109-2.761 15.062-2.761 23.88 0 44.938 20.295 44.938 45.062 0 25.153-21.202 45.057-44.925 45.057-4.972 0-10.054-.874-15.075-2.757v93.7h30 210c8.401 0 15-6.601 15-15v-256z" fill="#9df"/><path d="m497 512c8.401 0 15-6.601 15-15v-256h-77.701c1.99 5.307 2.9 10.56 2.9 15.622 0 24.345-21.039 44.246-44.036 44.246v211.132z" fill="#66b3ff"/></g></svg>