<svg id="Capa_1" enable-background="new 0 0 512.002 512.002" height="512" viewBox="0 0 512.002 512.002" width="512" xmlns="http://www.w3.org/2000/svg"><g><circle cx="437.001" cy="136.002" r="15"/><path d="m61.265 269.719c-.83 5.308-1.264 10.746-1.264 16.283 0 21.264 6.492 42.032 18.44 59.44l-35.771 76.71c-11.604-7.565-18.184-12.771-18.301-12.864-6.47-5.174-15.909-4.125-21.083 2.345-5.175 6.469-4.125 15.909 2.345 21.083 42.842 34.251 131.616 79.286 220.369 79.286 84.812 0 174.232-42.401 220.369-79.286 6.465-5.171 7.514-14.598 2.348-21.068-5.163-6.469-14.599-7.529-21.075-2.369-.111.089-5.595 4.424-15.34 10.913l-41.185-71.333c13.534-18.076 20.883-40.013 20.883-62.857 0-7.382-.769-14.719-2.288-21.885l11.002-22.002c10.538 17.306 29.585 28.887 51.286 28.887 33.084 0 60-26.916 60-60v-75c0-26.614-13.946-50.017-34.901-63.332l32.442-49.438c4.545-6.926 2.614-16.225-4.312-20.77-6.924-4.544-16.226-2.615-20.771 4.311l-36.146 55.083c-3.69-.561-7.468-.854-11.313-.854h-15v-46c0-8.284-6.716-15-15-15-40.51 0-73.01 32.835-74.91 72.28l-54.36 108.72h-112.728c-29.354 0-55.927 12.113-75 31.596v-46.596c0-41.355-33.645-75-75-75-8.284 0-15 6.716-15 15v90c0 36.662 26.449 67.244 61.264 73.717zm7.281 167.93 11.374-24.392 27.189 12.679-11.748 25.193c-8.85-4.041-17.6-8.413-26.815-13.48zm54.602 24.878 33.506-71.854c2.774.219 5.561.329 8.347.329 0 0 124.98-.031 126.472-.094 7.933 13.74 31.717 54.936 40.652 70.412-30.001 11.262-66.834 20.682-106.124 20.682-37.875 0-73.463-8.756-102.853-19.475zm236.84-12.946-13.331-23.089 25.981-15 14.062 24.355c-8.962 5.034-17.782 9.556-26.712 13.734zm92.013-208.579c-16.542 0-30-13.458-30-30.01h60c0 16.552-13.458 30.01-30 30.01zm-272-30h92v60h-92zm-30 1.509v73.491c0 8.284 6.716 15 15 15h122c8.284 0 15-6.716 15-15v-86.46l58.416-116.832c1.042-2.083 1.584-4.38 1.584-6.708 0-19.59 12.719-36.791 30-43.265v43.265c0 8.284 6.716 15 15 15h30c24.813 0 45 20.187 45 45v45h-75c-5.636 0-10.89 3.245-13.416 8.292l-33.152 66.304c-1.649 3.299-2.026 7.09-1.058 10.649 1.742 6.398 2.626 13.045 2.626 19.755 0 19.024-7.133 37.164-20.083 51.08-4.489 4.824-5.305 12.012-2.01 17.719l17.73 30.71-25.981 15-18.992-32.895c-3.058-5.297-9.02-8.208-15.084-7.353-3.478.49-7.037.739-10.581.739h-122c-4.854 0-9.705-.465-14.419-1.382-6.756-1.313-13.547 2.142-16.459 8.385l-14.335 30.742-27.189-12.679 16.844-36.122c2.456-5.268 1.648-11.481-2.074-15.946-11.199-13.43-17.367-30.476-17.367-47.998 0-36.22 25.808-66.523 60-73.491zm-120-88.939c17.461 6.191 30 22.873 30 42.43v72.43c-17.461-6.191-30-22.873-30-42.43z"/></g></svg>