<svg id="Capa_1" enable-background="new 0 0 511.995 511.995" height="512" viewBox="0 0 511.995 511.995" width="512" xmlns="http://www.w3.org/2000/svg"><g><path d="m181.265 184.088c-4.142 0-7.5 3.358-7.5 7.5v12c0 4.142 3.358 7.5 7.5 7.5s7.5-3.358 7.5-7.5v-12c0-4.142-3.357-7.5-7.5-7.5zm149.465 27c4.143 0 7.5-3.358 7.5-7.5v-12c0-4.142-3.357-7.5-7.5-7.5s-7.5 3.358-7.5 7.5v12c0 4.142 3.357 7.5 7.5 7.5zm-43.539 2.459c0-12.057-6.008-17.634-11.047-20.189-5.449-2.763-11.995-3.33-20.146-3.33-8.152 0-14.697.566-20.146 3.329-5.04 2.556-11.047 8.133-11.047 20.19 0 18.755 13.993 34.013 31.193 34.013s31.193-15.258 31.193-34.013zm-47.387 0c0-5.907.655-8.519 16.193-8.519s16.193 2.612 16.193 8.519c0 10.484-7.265 19.013-16.193 19.013-8.929 0-16.193-8.529-16.193-19.013zm270.907 42.582c-2.955-9.002-10.438-15.271-19.098-17.122-7.427-27.386-33.742-50.409-76.568-66.842-32.118-12.325-72.776-20.403-117.288-23.512l11.587-96.411c3.2-26.623-17.575-50.251-44.573-50.251h-17.547c-17.78 0-33.913 10.521-41.1 26.803-1.673 3.79.043 8.217 3.832 9.89 3.788 1.672 8.217-.044 9.89-3.832 4.79-10.85 15.536-17.861 27.377-17.861h17.547c17.855 0 31.826 15.611 29.681 33.461l-11.699 97.346c-8.805-.387-17.732-.588-26.755-.588s-17.951.201-26.755.588l-9.746-81.091c-.494-4.112-4.227-7.051-8.341-6.551-4.112.494-7.045 4.229-6.551 8.341l9.633 80.155c-44.512 3.109-85.17 11.187-117.289 23.513-42.826 16.434-69.142 39.457-76.568 66.844-8.659 1.853-16.144 8.12-19.098 17.12-4.418 13.468 2.946 28.02 16.414 32.439 2.988.98 6.669 2.116 11.055 3.355 15.149 26.338 44.854 49.135 82.82 65.724 4.926 32.105 39.996 58.716 88.527 70.442 14.094 54.353 32.89 81.912 55.899 81.912 8.847 0 17.21-4.198 24.854-12.477 2.81-3.044 2.62-7.788-.423-10.598s-7.787-2.621-10.599.422c-4.688 5.078-9.343 7.653-13.833 7.653-13.699 0-28.172-23.548-39.458-63.602 12.54 2.041 25.772 3.133 39.458 3.133 13.687 0 26.921-1.092 39.462-3.134-2.888 10.283-5.985 19.521-9.253 27.542-1.564 3.836.279 8.212 4.115 9.775 3.844 1.565 8.217-.288 9.775-4.116 4.251-10.432 8.209-22.707 11.794-36.51 48.533-11.726 83.606-38.338 88.532-70.444 37.966-16.589 67.671-39.387 82.819-65.725 4.386-1.239 8.068-2.375 11.056-3.355 13.472-4.415 20.834-18.967 16.415-32.436zm-408.389-69.96c40.263-15.45 94.839-23.959 153.675-23.959s113.411 8.509 153.675 23.959c44.64 17.13 61.201 37.86 66.667 54.165-70.534 22.483-186.292 24.248-220.342 24.248-34.049 0-149.802-1.765-220.34-24.247 5.466-16.304 22.022-37.034 66.665-54.166zm153.675 233.366c-61.402 0-114.104-23.694-127.005-54.921 37.646 13.728 81.691 21.687 127.005 21.687 45.311 0 89.353-7.958 126.998-21.684-12.903 31.225-65.598 54.918-126.998 54.918zm137.947-75.4c-40.632 17.772-88.333 27.165-137.946 27.165s-97.315-9.394-137.947-27.166c-29.214-12.777-52.38-28.966-67.12-46.651 38.664 8.628 104.841 18.513 205.068 18.513 100.219 0 166.393-9.884 205.06-18.512-14.744 17.685-37.903 33.874-67.115 46.651zm95.679-69.818c-24.456 8.022-96.18 26.68-233.626 26.68-137.449 0-209.17-18.658-233.626-26.68-5.609-1.84-8.676-7.902-6.837-13.511 1.849-5.633 7.929-8.668 13.511-6.837 72.448 23.767 192.027 25.614 226.951 25.614s154.504-1.847 226.949-25.614c5.611-1.838 11.672 1.228 13.513 6.836 1.841 5.611-1.225 11.672-6.835 13.512z"/></g></svg>