<svg id="Layer_1" enable-background="new 0 0 512 512" height="512" viewBox="0 0 512 512" width="512" xmlns="http://www.w3.org/2000/svg"><g><path d="m30.905 301.538h-20.603c-5.69 0-10.302-4.612-10.302-10.302v-61.811c0-5.69 4.612-10.302 10.302-10.302h20.604v82.415z" fill="#ffd54f"/><path d="m159.923 233.846h192.154v52.97h-192.154z" fill="#e0e0e0"/><path d="m301.843 233.846h50.234v52.97h-50.234z" fill="#bdbdbd"/><g><path d="m81.714 371.512h-35.932c-8.216 0-14.876-6.66-14.876-14.876v-201.272c0-8.216 6.66-14.876 14.876-14.876h35.932c8.216 0 14.876 6.66 14.876 14.876v201.272c0 8.216-6.66 14.876-14.876 14.876z" fill="#546e7a"/><path d="m81.263 140.488h-32.842c8.465 0 15.326 6.465 15.326 14.439v202.146c0 7.974-6.862 14.439-15.326 14.439h32.842c8.465 0 15.326-6.465 15.326-14.439v-202.146c.001-7.975-6.861-14.439-15.326-14.439z" fill="#455a64"/><path d="m466.259 371.512h-35.655c-8.193 0-14.835-6.642-14.835-14.835v-201.354c0-8.193 6.642-14.835 14.835-14.835h35.655c8.193 0 14.835 6.642 14.835 14.835v201.354c.001 8.193-6.641 14.835-14.835 14.835z" fill="#546e7a"/><path d="m465.852 140.488h-32.663c8.418 0 15.243 6.465 15.243 14.439v202.146c0 7.974-6.824 14.439-15.243 14.439h32.663c8.418 0 15.243-6.465 15.243-14.439v-202.146c0-7.975-6.825-14.439-15.243-14.439z" fill="#455a64"/><path d="m156.575 404h-41.181c-12.524 0-22.677-10.153-22.677-22.677v-250.646c0-12.524 10.153-22.677 22.677-22.677h41.181c12.524 0 22.677 10.153 22.677 22.677v250.646c0 12.524-10.153 22.677-22.677 22.677z" fill="#546e7a"/><path d="m156.588 108h-30.905c12.517 0 22.664 10.159 22.664 22.69v250.62c0 12.531-10.147 22.69-22.664 22.69h30.905c12.517 0 22.664-10.159 22.664-22.69v-250.62c0-12.531-10.147-22.69-22.664-22.69z" fill="#455a64"/><path d="m396.607 404h-41.181c-12.524 0-22.677-10.153-22.677-22.677v-250.646c0-12.524 10.153-22.677 22.677-22.677h41.181c12.524 0 22.677 10.153 22.677 22.677v250.646c0 12.524-10.153 22.677-22.677 22.677z" fill="#546e7a"/><path d="m396.62 108h-30.905c12.517 0 22.664 10.159 22.664 22.69v250.62c0 12.531-10.147 22.69-22.664 22.69h30.905c12.517 0 22.664-10.159 22.664-22.69v-250.62c0-12.531-10.147-22.69-22.664-22.69z" fill="#455a64"/></g><path d="m501.698 301.538h-20.604v-82.414h20.604c5.69 0 10.302 4.612 10.302 10.302v61.811c0 5.689-4.612 10.301-10.302 10.301z" fill="#ffd54f"/></g></svg>