<svg id="Layer_1" enable-background="new 0 0 512.112 512.112" height="512" viewBox="0 0 512.112 512.112" width="512" xmlns="http://www.w3.org/2000/svg"><g><path d="m423.121 138.666h88.991v373.402h-88.991z" fill="#00dd80"/><path d="m423.121 138.666h88.991v373.402h-88.991z" fill="#00aa95"/><g><path d="m423.121 243.048h88.976v90.004h-88.976z" fill="#00aa95"/></g><g><path d="m423.121 243.048h88.976v90.004h-88.976z" fill="#007579"/></g><path d="m184.116 80.05h144.502v432.017h-144.502z" fill="#e63950"/><path d="m256.367 80.05h72.251v432.017h-72.251z" fill="#cc2e43"/><g><path d="m199.116 423.452h114.502v30h-114.502z" fill="#ae2538"/></g><path d="m256.367 423.452h57.251v30h-57.251z" fill="#8e1e2c"/><g><path d="m241.367 199.381h30v193.354h-30z" fill="#ae2538"/></g><g><path d="m199.116 138.666h114.502v30h-114.502z" fill="#ae2538"/></g><path d="m256.367 138.666h57.251v30h-57.251z" fill="#8e1e2c"/><path d="m298.618 26.047h94.499v486.021h-94.499z" fill="#78b9eb"/><path d="m298.618 26.047h94.499v486.021h-94.499z" fill="#6e76e5"/><g><path d="m298.618 108.664h79.499v30h-79.499z" fill="#beebfa"/></g><g><path d="m298.618 108.664h79.499v30h-79.499z" fill="#78b9eb"/></g><path d="m363.117.045h90.004v512.022h-90.004z" fill="#6e76e5"/><path d="m363.117.045h90.004v512.022h-90.004z" fill="#0051bf"/><path d="m69.541.117h144.575v511.951h-144.575z" fill="#00dd80"/><path d="m.002.045h99.43v512.022h-99.43z" fill="#ff9f22"/><g><path d="m141.83 75.049h30v103.349h-30z" fill="#00aa95"/></g><g><path d="m0 60.049h99.435v30h-99.435z" fill="#fff79f"/></g><g><path d="m0 422.063h99.435v30h-99.435z" fill="#fff79f"/></g><path d="m256.367 199.381h15v193.354h-15z" fill="#8e1e2c"/></g></svg>