<?xml version="1.0" encoding="iso-8859-1"?>
<!-- Generator: Adobe Illustrator 19.0.0, SVG Export Plug-In . SVG Version: 6.00 Build 0)  -->
<svg version="1.1" id="Capa_1" xmlns="http://www.w3.org/2000/svg" xmlns:xlink="http://www.w3.org/1999/xlink" x="0px" y="0px"
	 viewBox="0 0 512.017 512.017" style="enable-background:new 0 0 512.017 512.017;" xml:space="preserve">
<g>
	<g>
		<path d="M511.667,384.297c-1.417-17.211-7.17-33.783-16.722-48.17v0v-88.652c-0.019-10.822-6.857-20.457-17.067-24.047v-53.265
			c8.869-7.728,11.333-20.504,5.973-30.976C440.065,53.691,352.068-0.063,256.011,0.009C160.004,0.111,72.09,53.814,28.171,139.187
			c-5.36,10.472-2.896,23.248,5.973,30.976v53.284c-10.199,3.592-17.033,13.215-17.067,24.028v88.652
			c-31.238,47.049-18.42,110.514,28.629,141.752c14.387,9.552,30.959,15.305,48.171,16.722v0.341
			c0.028,9.414,7.652,17.039,17.067,17.067h17.067c18.846,0.005,34.128-15.269,34.133-34.115c0-0.006,0-0.012,0-0.019V307.209
			c0.005-18.846-15.268-34.128-34.114-34.133c-0.006,0-0.013,0-0.019,0h-17.067c-9.414,0.028-17.039,7.652-17.067,17.067v0.341
			c-8.739,0.751-17.344,2.631-25.6,5.595v-48.603c-0.019-10.822-6.857-20.457-17.067-24.047v-46.95
			c9.511-0.087,18.189-5.445,22.528-13.909c4.894-9.42,10.485-18.462,16.725-27.051v-0.085
			c42.069-31.829,102.4-50.091,165.547-50.091s123.477,18.261,165.547,50.091v0.085c6.243,8.57,11.807,17.614,16.64,27.051
			c4.375,8.471,13.079,13.825,22.613,13.909v46.97c-10.199,3.592-17.033,13.214-17.067,24.028v48.603
			c-8.256-2.964-16.861-4.845-25.6-5.595v-0.341c-0.028-9.414-7.652-17.039-17.067-17.067h-17.067
			c-18.846-0.005-34.128,15.268-34.133,34.114c0,0.006,0,0.013,0,0.019v170.667c-0.005,18.846,15.269,34.128,34.115,34.133
			c0.006,0,0.012,0,0.019,0h17.067c9.414-0.028,17.039-7.652,17.067-17.067v-0.341C474.43,489.967,516.301,440.582,511.667,384.297z
			 M51.37,303.892c-6.154,3.53-11.926,7.686-17.225,12.403v-68.82c0.003-4.711,3.822-8.53,8.533-8.533
			c2.302-0.005,4.504,0.942,6.083,2.617c1.586,1.558,2.471,3.694,2.45,5.917v55.633C51.251,303.372,51.304,303.634,51.37,303.892z
			 M256.011,68.275c-41.644-0.192-82.934,7.66-121.6,23.125c12.952-9.717,27.053-17.799,41.984-24.064
			C243.09,39.134,319.728,48.32,377.867,91.486C339.129,75.952,297.748,68.069,256.011,68.275z M477.878,316.295
			c-5.253-4.677-10.972-8.804-17.067-12.315v-56.505c0.003-4.711,3.822-8.53,8.533-8.533c2.302-0.005,4.504,0.942,6.083,2.617
			c1.586,1.558,2.471,3.694,2.45,5.917V316.295z"/>
	</g>
</g>
<g>
</g>
<g>
</g>
<g>
</g>
<g>
</g>
<g>
</g>
<g>
</g>
<g>
</g>
<g>
</g>
<g>
</g>
<g>
</g>
<g>
</g>
<g>
</g>
<g>
</g>
<g>
</g>
<g>
</g>
</svg>
