<svg id="Capa_1" enable-background="new 0 0 512.009 512.009" height="512" viewBox="0 0 512.009 512.009" width="512" xmlns="http://www.w3.org/2000/svg"><g><path d="m191.73 391.484c0-1.989-.79-3.896-2.197-5.304l-63.656-63.655c-2.928-2.928-7.677-2.928-10.606 0l-21.218 21.218c-1.407 1.407-2.197 3.314-2.197 5.304s.79 3.896 2.197 5.304l63.655 63.656c1.406 1.406 3.314 2.196 5.303 2.196s3.897-.79 5.303-2.196l21.219-21.219c1.407-1.408 2.197-3.315 2.197-5.304zm-28.718 10.612-53.049-53.05 10.612-10.611 53.049 53.049z"/><path d="m189.536 418.009c-8.773 8.773-8.773 23.05 0 31.824 4.387 4.387 10.15 6.58 15.913 6.58s11.525-2.193 15.913-6.58c8.774-8.774 8.774-23.051 0-31.825-8.775-8.773-23.052-8.774-31.826.001zm21.219 21.217c-1.417 1.418-3.302 2.198-5.306 2.198s-3.889-.78-5.306-2.197c-2.926-2.926-2.926-7.687 0-10.611 1.463-1.463 3.385-2.194 5.306-2.194s3.843.731 5.306 2.194c2.925 2.925 2.925 7.685 0 10.61z"/><path d="m173.621 267.282c-1.989 0-3.897.79-5.303 2.196l-21.219 21.219c-1.407 1.407-2.197 3.314-2.197 5.304s.79 3.896 2.197 5.304l63.656 63.655c1.464 1.464 3.384 2.196 5.303 2.196s3.839-.732 5.303-2.196l21.218-21.218c1.407-1.407 2.197-3.314 2.197-5.304s-.79-3.896-2.197-5.304l-63.655-63.656c-1.406-1.406-3.314-2.196-5.303-2.196zm42.437 81.767-53.049-53.049 10.612-10.612 53.049 53.05z"/><path d="m509.812 55.292c-2.651-2.65-4.679-5.933-5.865-9.489l-3.493-10.478c-3.713-11.14-12.582-20.008-23.722-23.722l-10.478-3.492c-3.556-1.185-6.837-3.213-9.49-5.865-2.929-2.928-7.677-2.928-10.606 0l-63.78 63.78c-1.407 1.407-2.197 3.314-2.197 5.304 0 9.669-3.09 19.159-8.713 26.798l-123.381 114.953c-4.65 4.302-12.102 4.137-16.619-.381-3.214-3.214-4.317-7.889-2.88-12.199l3.526-10.578c2.932-8.796.681-18.333-5.875-24.891-5.024-5.023-11.967-7.6-19.055-7.053-7.085.543-13.558 4.141-17.758 9.871l-37.706 51.43c-4.223 5.76-11.008 9.199-18.15 9.2l-17.271.002h-.148c-31.144 0-60.337 12.044-82.215 33.923-24.741 24.74-36.612 59.282-33.426 97.261 3.146 37.507 20.655 73.938 49.3 102.584 32.833 32.833 74.857 49.711 114.457 49.709 32.131-.001 62.667-11.115 85.387-33.835 21.914-21.914 33.961-51.164 33.923-82.353l.001-17.282c0-7.142 3.439-13.927 9.2-18.149l51.431-37.705c5.73-4.202 9.328-10.675 9.871-17.76.542-7.085-2.029-14.03-7.053-19.054-6.555-6.557-16.091-8.806-24.891-5.877l-10.577 3.526c-4.313 1.438-8.986.334-12.199-2.879-4.522-4.523-4.694-11.978-.383-16.62l74.527-79.992c2.824-3.03 2.656-7.776-.375-10.6-3.03-2.824-7.776-2.657-10.6.375l-114.257 122.635-32.604-32.604 139.252-129.738 28.21 28.21c1.439 1.438 3.401 2.264 5.436 2.195 2.035-.036 3.967-.897 5.354-2.387l20.01-21.477c7.64-5.624 17.13-8.714 26.799-8.714 1.989 0 3.897-.79 5.303-2.196l63.78-63.78c2.93-2.929 2.93-7.677 0-10.606zm-310.244 213.607 43.592 43.592c1.408 1.407 3.316 2.196 5.303 2.196.044 0 .088 0 .132-.001 2.035-.036 3.968-.897 5.355-2.387l28.588-30.684c1.326 3.488 3.395 6.764 6.214 9.583 7.257 7.256 17.813 9.745 27.549 6.503l10.577-3.526c3.371-1.124 7.027-.262 9.54 2.253 1.954 1.954 2.914 4.547 2.703 7.303-.211 2.755-1.554 5.173-3.783 6.807l-51.431 37.705c-9.599 7.038-15.33 18.345-15.331 30.246l-.001 17.291c.033 27.186-10.455 52.662-29.53 71.738-44.872 44.873-125.006 37.753-178.631-15.875-26.142-26.142-42.109-59.252-44.959-93.23-2.811-33.505 7.518-63.834 29.084-85.4 19.046-19.046 44.47-29.529 71.619-29.529h.129l17.281-.002c11.902-.001 23.209-5.732 30.246-15.331l37.706-51.431c1.634-2.229 4.051-3.572 6.806-3.783 2.753-.206 5.349.75 7.303 2.703 2.513 2.514 3.376 6.169 2.252 9.54l-3.526 10.578c-3.245 9.735-.753 20.292 6.504 27.55 2.819 2.819 6.095 4.887 9.583 6.212l-30.685 28.589c-1.489 1.387-2.351 3.32-2.387 5.354-.034 2.035.759 3.997 2.198 5.436zm188.675-122.743-22.341-22.34 10.987-10.237 21.59 21.59zm49.295-29.196c-9.794.52-19.356 3.42-27.689 8.365l-23.116-23.116c4.945-8.332 7.846-17.894 8.365-27.688l56.879-56.88c2.949 1.987 6.166 3.577 9.535 4.7l10.477 3.492c6.686 2.229 12.007 7.55 14.235 14.235l3.493 10.478c1.124 3.369 2.714 6.586 4.7 9.534z"/></g></svg>