<?xml version="1.0" encoding="iso-8859-1"?>
<!-- Generator: Adobe Illustrator 19.0.0, SVG Export Plug-In . SVG Version: 6.00 Build 0)  -->
<svg version="1.1" id="Capa_1" xmlns="http://www.w3.org/2000/svg" xmlns:xlink="http://www.w3.org/1999/xlink" x="0px" y="0px"
	 viewBox="0 0 512.005 512.005" style="enable-background:new 0 0 512.005 512.005;" xml:space="preserve">
<g>
	<g>
		<g>
			
				<rect x="314.668" y="287.563" transform="matrix(0.9864 -0.1644 0.1644 0.9864 -48.1796 57.8352)" width="21.333" height="64.885"/>
			
				<rect x="132.893" y="309.356" transform="matrix(-0.1641 0.9864 -0.9864 -0.1641 508.1498 209.4367)" width="64.886" height="21.333"/>
			<path d="M501.338,298.669h-18.697L388.655,73.005c-4.795-11.51-15.839-19.186-28.299-19.669l-42.293-9.035l-9.045-36.213
				c-1.185-4.75-5.451-8.084-10.347-8.085H192.005c-4.878,0.014-9.125,3.334-10.315,8.064l-7.467,29.76
				c-0.976,3.959-4.137,7.007-8.128,7.84l-35.776,7.669c-12.464,0.487-23.51,8.173-28.299,19.691L0.826,315.949
				c-2.162,5.178,0.057,11.146,5.077,13.653l44.917,22.4c0.001,0,0.002,0.001,0.003,0.001c15.808,7.902,35.029,1.492,42.931-14.316
				l22.389-44.672l-8.875,52.107c-0.518,5.851,0.589,11.731,3.2,16.992l4.459,8.928c1.147,2.28,1.438,4.895,0.821,7.371
				l-5.44,21.749c-0.423,1.691-0.637,3.427-0.637,5.17c-0.002,11.782,9.548,21.335,21.33,21.337h71.669v-21.333h-71.68l5.44-21.749
				c1.863-7.412,1.004-15.247-2.421-22.08l-4.448-8.928c-0.763-1.472-1.179-3.099-1.216-4.757l20.832-122.027
				c0.783-4.624-1.545-9.217-5.738-11.318c-5.267-2.639-11.676-0.509-14.315,4.758L74.671,328.152
				c-0.001,0.001-0.001,0.002-0.002,0.004c-2.637,5.268-9.045,7.401-14.313,4.764l-36.011-18.005l95.28-228.681l83.045,20.761
				v31.675h21.333v-26.341l18.752,4.688c0.23,0.058,0.465,0.088,0.697,0.13c0.172,0.031,0.341,0.074,0.515,0.096
				c0.454,0.059,0.911,0.093,1.369,0.093c0.459,0,0.916-0.034,1.369-0.093c0.174-0.023,0.342-0.065,0.514-0.096
				c0.233-0.042,0.468-0.073,0.698-0.131l18.752-4.688v47.675h21.333v-53.008l83.044-20.761l88.481,212.436h-58.236l-39.742-79.435
				c-2.105-4.219-6.73-6.556-11.375-5.747c-5.804,1.011-9.689,6.535-8.678,12.339l16.651,96l21.056-3.616l-4.267-24.533
				l8.453,16.887c-21.157,81.58-131.561,94.067-138.607,94.771c-17.456,0.303-31.448,14.541-31.445,32v64
				c0,5.891,4.776,10.667,10.667,10.667h277.333c5.891,0,10.667-4.776,10.667-10.667v-192
				C512.005,303.445,507.229,298.669,501.338,298.669z M313.604,65.154l28.973,6.212l-75.981,18.992l28.277-50.898l2.507,10.025
				C299.325,57.394,305.633,63.486,313.604,65.154z M210.129,21.336h70.417l-35.209,63.36L210.129,21.336z M170.565,66.541
				c11.919-2.586,21.348-11.696,24.341-23.52l0.893-3.568l28.28,50.905l-75.985-18.993L170.565,66.541z M490.671,490.669h-256
				v-53.333c0-5.891,4.776-10.667,10.667-10.667c0.295,0.016,0.59,0.016,0.885,0c2.099-0.191,22.074-2.031,47.331-9.784
				l17.577,26.366l17.75-11.834l-14.617-21.925c6.047-2.481,12.189-5.304,18.294-8.529l22.59,22.59l15.085-15.085l-18.914-18.914
				c5.119-3.574,10.094-7.49,14.84-11.771l22.619,15.079l11.834-17.75l-19.576-13.051c9.42-11.777,17.087-25.669,21.891-42.058
				h87.744V490.669z"/>
			<rect x="266.671" y="458.669" width="192" height="21.333"/>
		</g>
	</g>
</g>
<g>
</g>
<g>
</g>
<g>
</g>
<g>
</g>
<g>
</g>
<g>
</g>
<g>
</g>
<g>
</g>
<g>
</g>
<g>
</g>
<g>
</g>
<g>
</g>
<g>
</g>
<g>
</g>
<g>
</g>
</svg>
