<svg height="512pt" viewBox="-23 0 512 512.001" width="512pt" xmlns="http://www.w3.org/2000/svg"><path d="m6.652344 389.394531c-3.65625 0-6.652344 2.96875-6.652344 6.59375v109.421875c0 3.625 2.996094 6.589844 6.652344 6.589844h110.433594c3.660156 0 6.652343-2.964844 6.652343-6.589844v-116.015625zm0 0" fill="#fb8276"/><path d="m222.375 344.597656c0-17.707031 5.15625-33.820312 14.820312-47.101562-16.273437 7.636718-34.460937 9.996094-51.925781 7.089844v44.460937c12.347657 1.347656 24.847657.964844 37.105469-1.132813zm0 0" fill="#a2f9f9"/><path d="m373.550781 276.59375c-13.675781 6.496094-28.894531 10.101562-44.777343 10.101562h-30.988282c-15.460937 0-30.085937-2.699218-43.179687-7.789062-20.316407 14.589844-33.230469 37.261719-33.230469 65.691406v14.070313l4.128906.414062-.519531-1.503906-.765625-2.027344c-.710938-1.875-.644531-3.917969.179688-5.742187.824218-1.828125 2.316406-3.226563 4.191406-3.9375l2.167968-.816406c.855469-.324219 1.75-.488282 2.652344-.488282 3.105469 0 5.929688 1.953125 7.027344 4.859375l8.269531 21.621094.074219.101563c.90625 1.292968 1.707031 2.671874 2.378906 4.097656l.203125.429687.457031.113281c6.625 1.675782 13.457032 2.523438 20.308594 2.523438 31.585938 0 60.960938-18.140625 74.839844-46.214844 3.386719-6.855468 10.269531-11.109375 17.960938-11.109375 3.027343 0 5.949218.667969 8.691406 1.992188 4.777344 2.3125 8.351562 6.332031 10.066406 11.324219 1.707031 4.972656 1.359375 10.316406-.976562 15.046874-10.328126 20.898438-26.355469 38.339844-46.347657 50.4375-19.460937 11.777344-41.753906 18.003907-64.464843 18.003907 0 0 0 0-.003907 0-8.574219 0-17.089843-.914063-25.429687-2.679688v40.457031h17.664062l.101563-.886718c1.199219-10.472656 10.136719-18.367188 20.78125-18.367188 7.835937 0 14.957031 4.285156 18.578125 11.183594l.882812 1.6875.886719-1.6875c3.621094-6.898438 10.738281-11.183594 18.578125-11.183594 10.644531 0 19.578125 7.898438 20.78125 18.367188l.105469.886718h64.722656v-112.003906c0-29.703125-14.089844-52.78125-35.996094-66.972656zm0 0" fill="#48e5e1"/><path d="m225.503906 359.082031-.519531-1.503906-.765625-2.027344c-.710938-1.875-.644531-3.917969.179688-5.742187.824218-1.828125 2.316406-3.226563 4.191406-3.9375l2.167968-.816406c.855469-.324219 1.75-.488282 2.652344-.488282 3.105469 0 5.929688 1.953125 7.027344 4.859375l8.269531 21.621094.074219.101563c.90625 1.292968 1.707031 2.671874 2.378906 4.097656l.203125.429687.457031.113281c.402344.105469.8125.191407 1.214844.289063v-31.480469c0-24.605468 9.679688-44.898437 25.453125-59.371094-8.378906-1.28125-16.382812-3.40625-23.882812-6.320312-20.316407 14.589844-33.230469 37.265625-33.230469 65.691406v14.070313zm0 0" fill="#41ceca"/><path d="m303.007812 457.042969c0-3.167969.742188-6.160157 2.03125-8.847657-3.421874-7.589843-11.097656-12.878906-20.027343-12.878906-11.265625 0-20.53125 8.421875-21.773438 19.25h-16.773437v50.839844c0 3.628906-2.996094 6.59375-6.652344 6.59375h46.695312v-.074219c8.289063-.554687 15.300782-5.675781 18.523438-12.839843-1.285156-2.683594-2.023438-5.667969-2.023438-8.8125zm0 0" fill="#a2f9f9"/><path d="m322.441406 511.925781v.074219h88.878906c16.003907 0 28.980469-12.855469 28.980469-28.71875 0-15.855469-12.976562-28.714844-28.980469-28.714844h-65.605468c-1.246094-10.828125-10.511719-19.25-21.777344-19.25-12.109375 0-21.929688 9.726563-21.929688 21.726563v33.230469c0 11.5 9.023438 20.886718 20.433594 21.652343zm0 0" fill="#a2f9f9"/><path d="m333.390625 490.273438v-33.230469c0-5.894531 2.382813-11.238281 6.230469-15.152344-3.980469-4.046875-9.527344-6.574219-15.683594-6.574219-12.109375 0-21.929688 9.730469-21.929688 21.726563v33.230469c0 11.5 9.023438 20.890624 20.433594 21.652343v.074219h31.386719v-.074219c-11.410156-.765625-20.4375-10.152343-20.4375-21.652343zm0 0" fill="#91e0e0"/><path d="m328.773438 286.695312h-30.988282c-4.835937 0-9.578125-.285156-14.230468-.800781v.875c0 13.714844 11.222656 24.835938 25.0625 24.835938 13.84375 0 25.066406-11.121094 25.066406-24.835938v-.199219c-1.632813.078126-3.265625.125-4.910156.125zm0 0" fill="#ffc987"/><path d="m434.328125 127.046875c-.140625 0-.28125.011719-.421875.011719v-14.652344c0-1.117188-.023438-2.230469-.058594-3.339844-2.234375 1.773438-4.769531 3.183594-7.601562 4.1875-6.261719 2.214844-12.378906 3.335938-18.175782 3.335938 0 0 0 0-.003906 0-31.484375 0-45.730468-33.128906-45.871094-33.464844l-.945312-2.257812-.90625 2.273437c-.171875.429687-17.441406 42.957031-46.28125 42.957031-3.164062 0-6.40625-.519531-9.628906-1.535156-13.675782-4.308594-18.195313-14.710938-13.4375-30.914062l-1.820313-.796876c-8.863281 14.792969-22.460937 32.429688-36.894531 32.429688-1.6875 0-3.371094-.242188-5.011719-.722656-5.371093-1.570313-9.21875-4.703125-11.429687-9.3125-3.605469-7.511719-2.734375-18.941406 2.390625-31.355469l-1.824219-.8125c-11.945312 25.050781-24.660156 37.226563-38.867188 37.226563-1.601562 0-3.234374-.164063-4.882812-.488282v63.128906c0 68.023438 47.066406 104.75 105.125 104.75h30.988281c48.753907 0 89.734375-33.0625 101.636719-77.902343 1.285156.195312 2.59375.308593 3.921875.308593 18.003906 0 32.597656-18.59375 32.597656-41.527343 0-22.933594-14.59375-41.527344-32.597656-41.527344zm0 0" fill="#ffd5b3"/><path d="m224.191406 182.945312v-70.539062c0-3.066406.140625-6.101562.398438-9.101562-8.480469 11.398437-17.421875 17-27.050782 17-1.601562 0-3.234374-.164063-4.882812-.488282v63.128906c0 68.023438 47.066406 104.75 105.128906 104.75h30.988282c.058593 0 .113281-.003906.171874-.003906-57.886718-.15625-104.753906-36.867187-104.753906-104.746094zm0 0" fill="#e5bfa1"/><g fill="#775436"><path d="m352.503906 181.496094c-4.144531 0-7.5-3.355469-7.5-7.5v-12.675782c0-4.140624 3.355469-7.5 7.5-7.5 4.140625 0 7.5 3.359376 7.5 7.5v12.675782c0 4.144531-3.359375 7.5-7.5 7.5zm0 0"/><path d="m238.339844 181.496094c-4.140625 0-7.5-3.355469-7.5-7.5v-12.675782c0-4.140624 3.359375-7.5 7.5-7.5 4.144531 0 7.5 3.359376 7.5 7.5v12.675782c0 4.144531-3.355469 7.5-7.5 7.5zm0 0"/><path d="m300.429688 192.617188h-5.011719c-6.894531 0-12.507813-5.675782-12.507813-12.648438v-9.742188c0-4.144531 3.355469-7.5 7.5-7.5 4.144532 0 7.5 3.355469 7.5 7.5v7.390626h2.519532c4.140624 0 7.5 3.359374 7.5 7.5 0 4.144531-3.359376 7.5-7.5 7.5zm0 0"/></g><path d="m297.164062 254.449219c-19.507812 0-35.378906-15.726563-35.378906-35.054688 0-3.640625 2.980469-6.59375 6.652344-6.59375h57.453125c3.675781 0 6.652344 2.953125 6.652344 6.59375 0 19.332031-15.871094 35.054688-35.378907 35.054688zm0 0" fill="#fb8276"/><path d="m293.539062 219.394531c0-3.640625 2.976563-6.589843 6.652344-6.589843h-31.753906c-3.675781 0-6.652344 2.949218-6.652344 6.589843 0 19.332031 15.871094 35.054688 35.378906 35.054688 5.707032 0 11.097657-1.351563 15.875-3.738281-11.550781-5.777344-19.5-17.640626-19.5-31.316407zm0 0" fill="#e1756a"/><path d="m326.722656 0h-33.519531c-62.808594 0-113.722656 50.730469-113.722656 113.308594v1.695312c2.09375 1.605469 4.554687 3.011719 7.453125 4.15625 24.097656 9.554688 40.382812-14.691406 50.375-35.648437-7.441406 18.019531-7.195313 37.078125 9.683594 42.007812 16.28125 4.753907 31.914062-13.582031 43.042968-32.152343-3.8125 12.984374-2.972656 26.769531 14.097656 32.152343 35.917969 11.324219 57.144532-42.007812 57.144532-42.007812s19.589844 46.859375 65.304687 30.683593c5.917969-2.097656 10.292969-5.691406 13.445313-10.347656-4.832032-58.148437-53.695313-103.847656-113.304688-103.847656zm0 0" fill="#f7931e"/><path d="m210.890625 115.003906v-1.695312c0-62.578125 50.914063-113.308594 113.722656-113.308594h-31.410156c-62.808594 0-113.722656 50.730469-113.722656 113.308594v1.695312c2.09375 1.605469 4.554687 3.011719 7.453125 4.15625 9.921875 3.933594 18.515625 2.128906 25.894531-2.808594-.671875-.433593-1.328125-.878906-1.9375-1.347656zm0 0" fill="#de841b"/><path d="m160.328125 267.789062v-8.523437c0-8.007813-6.554687-14.5-14.636719-14.5h-42.574218c-8.085938 0-14.636719 6.492187-14.636719 14.5v8.523437zm0 0" fill="#89c947"/><path d="m120.410156 267.789062v-8.523437c0-8.007813 6.550782-14.5 14.632813-14.5h-31.929688c-8.082031 0-14.636719 6.492187-14.636719 14.5v8.523437zm0 0" fill="#7bb540"/><path d="m186.273438 382.804688c0 3.625-2.996094 6.589843-6.652344 6.589843h-110.433594c-3.660156 0-6.652344-2.964843-6.652344-6.589843v-109.421876c0-3.625 2.992188-6.59375 6.652344-6.59375h110.433594c3.65625 0 6.652344 2.96875 6.652344 6.59375zm0 0" fill="#d5e962"/><path d="m141.859375 358.304688c-.601563 0-1.207031-.140626-1.761719-.433594l-15.695312-8.128906-15.695313 8.128906c-.554687.292968-1.160156.433594-1.761719.433594-.785156 0-1.5625-.238282-2.226562-.714844-1.167969-.832032-1.75-2.25-1.503906-3.652344l2.996094-17.222656-12.699219-12.199219c-1.03125-.988281-1.402344-2.476563-.957031-3.824219.445312-1.351562 1.628906-2.339844 3.054687-2.546875l17.550781-2.507812 7.847656-15.671875c.636719-1.273438 1.957032-2.078125 3.394532-2.078125 1.441406 0 2.757812.804687 3.398437 2.078125l7.847657 15.671875 17.546874 2.507812c1.425782.207031 2.609376 1.195313 3.054688 2.546875.449219 1.351563.078125 2.835938-.957031 3.824219l-12.695313 12.199219 2.996094 17.222656c.246094 1.402344-.339844 2.820312-1.503906 3.652344-.660156.476562-1.445313.714844-2.230469.714844zm0 0" fill="#89c947"/><path d="m24.464844 505.40625v-109.421875c0-3.625 2.992187-6.589844 6.652344-6.589844h-24.464844c-3.65625 0-6.652344 2.964844-6.652344 6.589844v109.421875c0 3.628906 2.996094 6.59375 6.652344 6.59375h24.464844c-3.660157 0-6.652344-2.964844-6.652344-6.59375zm0 0" fill="#e1756a"/><path d="m61.867188 479.015625c-.828126 0-1.621094-.320313-2.207032-.894531l-27.65625-27.046875c-6.703125-6.558594-6.703125-17.21875 0-23.773438 3.246094-3.171875 7.5625-4.921875 12.152344-4.921875s8.90625 1.75 12.152344 4.925782l5.558594 5.4375 5.5625-5.4375c3.246093-3.175782 7.5625-4.925782 12.152343-4.925782 4.589844 0 8.90625 1.75 12.152344 4.921875 6.703125 6.554688 6.703125 17.21875 0 23.773438l-27.65625 27.042969c-.585937.574218-1.378906.898437-2.210937.898437zm0 0" fill="#ef5050"/><path d="m235.605469 412.308594-.308594-.097656-.308594.105468c-2.914062.980469-5.953125 1.476563-9.03125 1.476563-.957031 0-1.925781-.046875-2.878906-.144531l-25.601563-2.574219c-3.777343-.382813-6.542968-3.765625-6.164062-7.542969l.214844-2.136719c.355468-3.535156 3.296875-6.199219 6.84375-6.199219.230468 0 .464844.011719.699218.035157l19.488282 1.960937.339844-3.367187-23.566407-2.371094c-1.632812-.164063-3.121093-.890625-4.25-2.058594h-67.34375v116.011719c0 3.628906 2.992188 6.59375 6.652344 6.59375h110.433594c3.65625 0 6.648437-2.964844 6.648437-6.59375v-90.082031c-3.996094-.8125-7.960937-1.804688-11.867187-3.015625zm0 0" fill="#ffc502"/><path d="m151.238281 505.40625v-116.011719h-27.5v116.015625c0 3.625 2.992188 6.589844 6.652344 6.589844h27.5c-3.660156 0-6.652344-2.964844-6.652344-6.59375zm0 0" fill="#e5b102"/><path d="m175.964844 478.660156c-3.660156 0-8.148438-2.566406-9.976563-5.707031l-9.644531-16.546875c-1.828125-3.140625-1.828125-8.277344 0-11.417969l9.644531-16.546875c1.828125-3.140625 6.316407-5.707031 9.976563-5.707031h19.28125c3.660156 0 8.152344 2.566406 9.980468 5.707031l9.640626 16.546875c1.832031 3.140625 1.832031 8.277344 0 11.417969l-9.640626 16.546875c-1.828124 3.140625-6.320312 5.707031-9.980468 5.707031zm0 0" fill="#fcdb67"/><path d="m88.957031 382.804688v-109.421876c0-3.625 2.992188-6.59375 6.652344-6.59375h-26.421875c-3.660156 0-6.652344 2.96875-6.652344 6.59375v109.421876c0 3.625 2.992188 6.589843 6.652344 6.589843h26.421875c-3.660156 0-6.652344-2.964843-6.652344-6.589843zm0 0" fill="#bfd158"/><path d="m433.671875 192.554688c-2.667969 0-5.25-1.425782-6.605469-3.9375-1.96875-3.644532-.613281-8.191407 3.03125-10.164063 8.492188-4.589844 3.550782-16.292969 3.335938-16.789063-1.644532-3.800781.105468-8.214843 3.90625-9.859374 3.800781-1.644532 8.21875.105468 9.859375 3.90625.265625.605468 2.574219 6.128906 2.773437 12.972656.304688 10.207031-4.222656 18.363281-12.746094 22.96875-1.128906.613281-2.351562.902344-3.554687.902344zm0 0" fill="#ffb98a"/><path d="m374.054688 322.078125c-10.367188-5.007813-22.894532-.722656-27.984376 9.574219-17.609374 35.625-58.121093 52.886718-95.304687 42.847656 2.316406 4.570312 3.324219 9.703125 2.8125 14.8125-1.144531 11.363281-9.21875 20.449219-19.917969 23.433594 57.746094 18.777344 122.398438-7.222656 149.945313-62.953125 5.089843-10.296875.8125-22.703125-9.550781-27.714844zm0 0" fill="#a2f9f9"/><path d="m190.316406 403.433594.21875-2.140625c.433594-4.332031 4.300782-7.492188 8.636719-7.058594l18.492187 1.859375.140626-1.375-22.574219-2.273438c-4.332031-.433593-7.492188-4.300781-7.054688-8.632812l.214844-2.140625c.433594-4.332031 4.300781-7.492187 8.636719-7.058594l22.570312 2.273438.140625-1.378907-18.496093-1.859374c-4.335938-.433594-7.496094-4.300782-7.058594-8.636719l.214844-2.140625c.4375-4.332032 4.304687-7.492188 8.636718-7.058594l20.960938 2.113281.050781.003907-.765625-2.027344c-1.660156-4.398438.558594-9.308594 4.953125-10.96875l2.171875-.820313c4.398438-1.660156 9.304688.558594 10.96875 4.957031l8.222656 21.5c3.746094 5.332032 5.667969 11.921876 4.976563 18.839844-1.566407 15.535156-15.710938 26.832032-31.597657 25.230469l-25.601562-2.574219c-4.332031-.433594-7.492188-4.300781-7.058594-8.632812zm0 0" fill="#ffd5b3"/></svg>