<svg id="Capa_1" enable-background="new 0 0 512 512" height="512" viewBox="0 0 512 512" width="512" xmlns="http://www.w3.org/2000/svg"><g><g><path d="m419.892 32.071c-6.751 0-355.861 0-357.818 0-18.638 0-33.801 15.163-33.801 33.801v253.536c0 16.484 12.216 30.77 28.472 33.375l6.088 4.86h351.048l11.341-4.86c16.256-2.605 28.472-16.891 28.472-33.375 0-8.436 0-245.906 0-253.536-.001-18.638-15.164-33.801-33.802-33.801z" fill="#365e7d"/><path d="m60.517 319.409v-253.536c0-18.638 15.163-33.801 33.801-33.801-19.683 0-31.883 0-32.244 0-18.638 0-33.801 15.163-33.801 33.801v253.536c0 16.484 12.216 30.77 28.472 33.375l6.088 4.86h32.244l-6.088-4.86c-16.256-2.605-28.472-16.891-28.472-33.375z" fill="#2b4d66"/><path d="m419.214 91.772h-354.442l-6.134 6.403v218.453c0 3.349 2.715 6.065 6.064 6.065h352.561c3.349 0 6.064-2.716 6.064-6.065 0-5.727 0-211.825 0-218.453z" fill="#e4f6ff"/><path d="m98.059 316.628v-218.453l6.134-6.403h-39.421l-6.134 6.403v218.453c0 3.349 2.715 6.065 6.064 6.065h39.421c-3.348 0-6.064-2.716-6.064-6.065z" fill="#d3effb"/><path d="m98.059 62.209h-33.357c-3.349 0-6.064 2.715-6.064 6.065v29.901h39.421l2.593-2.766v-31.275z" fill="#dd636e"/><path d="m417.264 62.209c-15.661 0-306.793 0-319.205 0v35.966h325.268v-29.901c.001-3.349-2.714-6.065-6.063-6.065z" fill="#b1e4f9"/><path d="m476.322 352.784h-470.678c-3.117 0-5.644 2.551-5.644 5.699v19.602c0 14.544 11.785 26.444 26.188 26.444h429.589c14.403 0 26.188-11.9 26.188-26.444v-19.602c.001-3.148-2.526-5.699-5.643-5.699z" fill="#407093"/><path d="m58.638 378.084v-19.602c0-3.147 2.527-5.699 5.644-5.699h-58.638c-3.117 0-5.644 2.551-5.644 5.699v19.602c0 14.544 11.785 26.444 26.188 26.444h58.638c-14.403 0-26.188-11.9-26.188-26.444z" fill="#365e7d"/></g><path d="m506.634 423.428v-201.228l5.366-5.078c0-12.703 0-20.99 0-22.607 0-11.609-9.411-21.02-21.02-21.02h-129.012c-11.609 0-21.02 9.411-21.02 21.02v22.607l6.009 5.422v202.776l-6.009 3.72v29.87c0 11.609 9.411 21.02 21.02 21.02h129.012c11.609 0 21.02-9.411 21.02-21.02 0-1.908 0-13.095 0-29.87z" fill="#365e7d"/><path d="m371.939 458.909v-29.87l6.009-3.72v-202.775l-6.009-5.422v-22.607c0-11.609 9.411-21.02 21.02-21.02h-30.991c-11.609 0-21.02 9.411-21.02 21.02v22.607l6.009 5.422v202.776l-6.009 3.72v29.87c0 11.609 9.411 21.02 21.02 21.02h30.991c-11.609-.001-21.02-9.412-21.02-21.021z" fill="#294b64"/><circle cx="235.832" cy="210.434" fill="#dd636e" r="64.61"/><path d="m195.947 210.434c0-31.454 22.48-57.645 52.248-63.415-4.003-.776-8.133-1.195-12.362-1.195-35.683 0-64.61 28.927-64.61 64.61s28.927 64.61 64.61 64.61c4.229 0 8.359-.419 12.362-1.195-29.768-5.77-52.248-31.961-52.248-63.415z" fill="#da4a54"/><path d="m262.124 203.743-33.155-22.608c-5.376-3.666-12.661.184-12.661 6.691v45.216c0 6.507 7.285 10.357 12.661 6.691l33.155-22.608c4.715-3.215 4.715-10.167 0-13.382z" fill="#f4fbff"/><path d="m241.031 189.36-12.063-8.225c-5.376-3.666-12.661.184-12.661 6.691v45.216c0 6.507 7.285 10.357 12.661 6.691l12.063-8.225z" fill="#e4f6ff"/><path d="m340.948 246.581h171.052v182.458h-171.052z" fill="#90d8f9"/><path d="m340.948 246.581h30.989v182.458h-30.989z" fill="#75cef9"/><g><path d="m434.686 460.585h-16.424c-4.267 0-7.726-3.459-7.726-7.726s3.459-7.726 7.726-7.726h16.424c4.267 0 7.726 3.459 7.726 7.726s-3.459 7.726-7.726 7.726z" fill="#365e7d"/></g><circle cx="426.474" cy="337.513" fill="#dd636e" r="56.232"/><path d="m391.489 337.513c0-27.423 19.634-50.248 45.609-55.217-3.442-.658-6.99-1.016-10.624-1.016-31.056 0-56.232 25.176-56.232 56.233 0 31.056 25.176 56.232 56.232 56.232 3.634 0 7.182-.358 10.624-1.016-25.975-4.968-45.609-27.794-45.609-55.216z" fill="#da4a54"/><path d="m340.948 217.122h31.505v30.924h-31.505z" fill="#dd636e"/><path d="m371.936 217.122v30.924h140.064v-30.924c-17.025 0-122.842 0-140.064 0z" fill="#b1e4f9"/><path d="m449.356 331.689-28.856-19.676c-4.679-3.19-11.02.161-11.02 5.824v39.353c0 5.663 6.341 9.014 11.02 5.824l28.856-19.677c4.104-2.799 4.104-8.85 0-11.648z" fill="#f4fbff"/><path d="m430.728 318.987-10.228-6.974c-4.679-3.19-11.02.16-11.02 5.824v39.353c0 5.663 6.341 9.014 11.02 5.823l10.228-6.974z" fill="#e4f6ff"/></g></svg>